<?xml version="1.0" encoding="UTF-8" standalone="no"?>
<!DOCTYPE svg PUBLIC "-//W3C//DTD SVG 1.1//EN" "http://www.w3.org/Graphics/SVG/1.1/DTD/svg11.dtd">
<svg width="100%" height="100%" viewBox="0 0 2076 2010" version="1.1" xmlns="http://www.w3.org/2000/svg" xmlns:xlink="http://www.w3.org/1999/xlink" xml:space="preserve" xmlns:serif="http://www.serif.com/" style="fill-rule:evenodd;clip-rule:evenodd;stroke-linecap:round;stroke-linejoin:round;stroke-miterlimit:1.5;">
    <g id="Artboard1" transform="matrix(0.997079,0,0,0.983118,-31.4536,-63.7669)">
        <rect x="31.546" y="64.862" width="2081.96" height="2044.45" style="fill:none;"/>
        <g id="Background" transform="matrix(1.5837,0,0,1.60619,-3106.16,657.543)">
            <circle cx="2616.68" cy="266.173" r="634.932" style="fill:rgb(73,68,201);"/>
            <clipPath id="_clip1">
                <circle cx="2616.68" cy="266.173" r="634.932"/>
            </clipPath>
            <g clip-path="url(#_clip1)">
                <g transform="matrix(0.944855,0,0,0.944855,276.599,-135.819)">
                    <circle cx="2616.68" cy="266.173" r="634.932" style="fill:rgb(35,44,99);"/>
                </g>
                <g id="Stars">
                </g>
            </g>
        </g>
        <g id="Chair" transform="matrix(1.03968,0,0,1.05444,-727.105,78.1217)">
            <path id="Rest" d="M1307.19,836.088L1257.71,836.318C1257.71,836.318 1229.86,834.516 1228.71,843.953C1227.56,853.39 1226.87,883.733 1226.87,883.733L1217.89,965.212L1202.01,1058.43L1188.37,1165.25L1432.89,1177.64L1409.86,889.528C1409.86,889.528 1414.5,843.168 1398.2,839.235C1381.9,835.301 1307.19,836.088 1307.19,836.088Z" style="fill:rgb(25,23,69);"/>
            <path d="M1415.55,1298.03L1508.27,1298.03L1563.76,1293.12L1569.37,1266.42L1550.41,1240.43L1504.05,1227.09L1467.53,1227.09L1433.81,1226.39L1425.38,1210.23L1367.08,1197.59C1367.08,1197.59 1302.46,1201.1 1288.41,1204.61C1274.36,1208.12 1249.07,1208.83 1249.07,1208.83L1211.85,1205.32L1199.9,1208.12L1207.63,1232.71L1216.06,1258L1216.76,1276.96L1228.7,1289.6L1258.21,1292.41L1312.29,1291.01L1353.73,1289.6L1384.64,1293.12L1415.55,1298.03Z" style="fill:rgb(21,17,64);"/>
            <g id="Leg" transform="matrix(1,0,0,1,-11.9986,3.51209)">
                <path d="M1305.12,1642.33C1305.12,1642.33 1303.64,1636 1315.43,1631.29C1327.21,1626.57 1327.51,1626.28 1327.51,1626.28L1433.13,1587.09L1433.78,1288.41L1467.28,1286.1L1466.7,1586.75L1586.39,1632.79C1586.39,1632.79 1593.27,1638.5 1594.17,1642.84C1595.08,1647.19 1591.56,1657.64 1589.6,1659.68C1587.64,1661.72 1575.5,1661.94 1571.58,1660.66C1567.65,1659.38 1539.3,1650.56 1535.53,1648.52C1531.75,1646.48 1461.77,1622 1461.77,1622C1461.77,1622 1451.63,1616.58 1441.03,1619.52C1430.42,1622.47 1383.64,1641.8 1383.64,1641.8L1345.16,1656.63L1320.65,1662.17C1320.65,1662.17 1308.27,1659.69 1306.39,1655.57C1304.5,1651.44 1305.12,1642.33 1305.12,1642.33Z" style="fill:rgb(25,23,69);"/>
            </g>
        </g>
        <g id="Programmer" transform="matrix(1.03968,0,0,1.05444,-727.105,78.1217)">
            <g id="Legs" transform="matrix(1,0,0,1,0,-3)">
                <path d="M1266.31,1222.67L1266.46,1271.7C1266.46,1271.7 1266.46,1279.69 1273.1,1286.93C1279.73,1294.17 1283.28,1292.66 1283.28,1292.66L1322.72,1292.74L1355.07,1430.14L1379,1432.22C1379,1432.22 1365.05,1448.92 1364.09,1451.88C1363.12,1454.84 1355.94,1459.12 1358.42,1462.86C1360.89,1466.6 1362.88,1469.56 1371.33,1468.65C1379.78,1467.75 1386.65,1463.46 1391.48,1456.64C1396.31,1449.83 1404.45,1435.89 1404.45,1435.89L1420.02,1436.25L1444.09,1294.37L1485.05,1292.75L1482.39,1434.76L1493,1434.46L1494.33,1446.1C1494.33,1446.1 1500.07,1455.97 1502.28,1458.18C1504.49,1460.39 1513.62,1469.08 1517.45,1469.81C1521.28,1470.55 1527.91,1473.35 1530.27,1470.85C1532.62,1468.34 1533.07,1464.66 1531.59,1460.98C1530.12,1457.29 1529.09,1451.99 1526.59,1450.22C1524.08,1448.45 1520.25,1442.56 1520.25,1442.56L1517.6,1435.49L1531.3,1432.99L1569.75,1293.78L1601.46,1293.84C1601.46,1293.84 1612.4,1291.67 1614.19,1285.54C1615.98,1279.42 1619.94,1274.61 1619.94,1274.61L1618.52,1223.32L1266.31,1222.67" style="fill:rgb(25,23,69);"/>
            </g>
            <g id="Torso">
                <path d="M1260.04,1153.41L1260.96,1103.69C1260.96,1103.69 1266.49,1072.16 1273.39,1061.34C1280.3,1050.52 1290.88,1038.79 1295.95,1037.17C1301.01,1035.56 1342.35,999.009 1342.35,999.009C1344,983.058 1334.52,952.401 1371.44,932.178C1409.59,911.281 1495.79,918.135 1515.09,925.13C1534.25,932.077 1566.78,1027.96 1571.98,1029.58C1582.41,1032.82 1603.99,1048.28 1610.1,1055.83C1616.22,1063.38 1621.97,1079.57 1622.33,1088.2C1622.69,1096.83 1624.85,1141.07 1624.85,1151.5C1624.85,1161.92 1594.64,1155.45 1594.64,1155.45L1260.04,1153.41" style="fill:rgb(0,152,163);"/>
                <path d="M1494.68,1135.19C1494.68,1135.19 1495.27,1127.17 1538.41,1111.03C1581.54,1094.88 1626.44,1102.07 1628.09,1101.95C1629.74,1101.84 1646.59,1101.48 1653.78,1114.68C1660.97,1127.88 1658.61,1141.67 1656.13,1149.8C1653.66,1157.93 1656.61,1153.69 1652.95,1154.39C1649.3,1155.1 1593.32,1155.34 1593.32,1155.34L1496.81,1153.45L1494.68,1135.19Z" style="fill:rgb(118,201,179);"/>
                <path d="M1444.22,1155.06L1474.05,1140.88C1474.05,1140.88 1483.62,1131.49 1483.07,1128.36C1482.52,1125.23 1477.18,1110.87 1463.55,1111.42C1449.93,1111.97 1359.7,1104.97 1359.7,1104.97C1359.7,1104.97 1308.51,1102.58 1286.23,1121.73C1263.95,1140.88 1270.4,1150.27 1270.4,1150.27L1271.32,1154.32L1444.22,1155.06Z" style="fill:rgb(118,201,179);"/>
            </g>
            <g id="Head" transform="matrix(1,0,0,1,0,3)">
                <path d="M1295.05,920.631L1297.92,745.187C1297.92,745.187 1300.57,735.244 1311.18,727.952C1321.78,720.66 1331.95,722.87 1331.95,722.87L1404.57,663.463L1385.29,707.995L1458.69,674.399L1447.23,706.931C1447.23,706.931 1485.12,696.359 1499.78,696.992C1514.44,697.626 1547.48,694.549 1547.48,694.549L1521.86,719.438L1585.94,693.372L1589.94,695.378C1589.94,695.378 1591.46,699.94 1589.58,703.27C1587.69,706.601 1585.02,710.656 1585.02,710.656L1576.18,721.661L1580.73,725.102C1580.73,725.102 1590.87,730.967 1598.91,745.737C1606.94,760.508 1601.94,921.357 1601.94,921.357C1601.94,921.357 1602.67,929.115 1595.87,938.383C1589.06,947.65 1587.32,948.374 1587.32,948.374L1307.93,948.818C1307.93,948.818 1295.12,939.882 1295.05,920.631Z" style="fill:rgb(130,130,223);"/>
                <path d="M1414.08,841.558C1414.08,841.558 1422.57,835.194 1445.9,835.477C1469.24,835.76 1484.51,845.518 1484.51,845.518C1484.51,845.518 1483.09,775.517 1557.76,776.365C1632.43,777.214 1632.57,845.518 1632.57,845.518C1632.57,845.518 1639.36,922.872 1561.3,924.004C1483.24,925.135 1483.8,860.084 1483.8,860.084C1483.8,860.084 1468.95,847.922 1446.18,849.053C1423.42,850.185 1413.24,858.811 1413.24,858.811C1413.24,858.811 1399.36,925.143 1332.47,924.472C1266.71,923.812 1262.61,858.007 1262.61,858.007C1262.61,858.007 1256.59,778.413 1337.13,774.147C1406.05,770.497 1414.08,841.558 1414.08,841.558Z" style="fill:rgb(25,23,70);"/>
                <path d="M1335.09,784.684C1335.09,784.684 1406.79,789.492 1404.39,850.301C1401.98,911.11 1344.99,915.353 1335.52,916.201C1326.04,917.05 1271.05,907.433 1270.33,851.15C1269.6,794.866 1318.99,784.967 1335.09,784.684Z" style="fill:rgb(132,130,225);"/>
                <path d="M1557.38,784.826C1557.38,784.826 1621.73,782.28 1626.26,848.463C1630.78,914.646 1562.9,914.221 1557.67,914.221C1552.44,914.221 1496.86,907.999 1493.61,850.301C1490.35,792.604 1546.5,784.119 1557.38,784.826Z" style="fill:rgb(132,130,225);stroke:black;stroke-width:0.96px;"/>
                <path d="M1545.35,797.699C1545.35,797.699 1600.65,801.771 1599.92,846.934C1599.2,892.097 1547.34,904.043 1547.34,904.043C1547.34,904.043 1497.83,906.94 1494.67,854.537C1491.5,802.133 1545.35,797.699 1545.35,797.699Z" style="fill:white;"/>
                <path d="M1296.73,848.778C1296.73,848.778 1297.16,799.253 1352.26,799.181C1407.36,799.108 1402.44,850.444 1402.44,850.444C1402.44,850.444 1403.02,905.037 1353.35,903.299C1303.68,901.561 1296.73,848.778 1296.73,848.778Z" style="fill:white;"/>
                <g id="Eyes">
                    <g transform="matrix(1,0,0,1,5.70812,24.1214)">
                        <path d="M1367.57,836.186C1367.57,836.186 1377.61,836.752 1377.33,848.065C1377.04,859.378 1367.71,857.116 1367.71,857.116C1367.71,857.116 1356.54,859.096 1356.54,847.641C1356.54,836.186 1367.57,836.186 1367.57,836.186Z" style="fill:rgb(23,23,68);"/>
                    </g>
                    <g transform="matrix(1,0,0,1,-3.13028,19.5181)">
                        <path d="M1524.96,847.217C1524.96,847.217 1526.24,838.166 1534.44,838.59C1542.64,839.014 1543.91,847.924 1543.91,847.924C1543.91,847.924 1542.92,857.823 1535.71,858.106C1528.5,858.388 1524.96,847.217 1524.96,847.217Z" style="fill:rgb(23,23,68);"/>
                    </g>
                </g>
            </g>
        </g>
        <g id="Laptop" transform="matrix(1.03968,0,0,1.05444,-727.105,78.1217)">
            <path d="M1598.13,1126.83L1297.47,1126.79L1299.81,954.445C1299.81,954.445 1299.37,953.317 1301.03,951.775C1302.69,950.233 1303.76,950.263 1303.76,950.263L1590.63,949.334C1590.63,949.334 1593.77,949.542 1595.2,952.389C1596.62,955.236 1596.77,956.6 1596.77,956.6L1598.13,1126.83Z" style="fill:rgb(25,23,69);"/>
            <path d="M1306.27,1153.73L1584.39,1153.49C1584.39,1153.49 1590.16,1152.2 1593.35,1145.95C1596.53,1139.71 1596.53,1137.7 1596.53,1137.7L1295.43,1136.88C1295.43,1136.88 1296.37,1142.42 1298.14,1145.24C1299.91,1148.07 1306.27,1153.73 1306.27,1153.73Z" style="fill:rgb(25,23,69);"/>
            <g id="apple-logo-svgrepo-com.svg" transform="matrix(3.2319,0,0,3.2319,1446.31,1031.54)">
                <g transform="matrix(1,0,0,1,-11.3865,-11.3865)">
                    <clipPath id="_clip2">
                        <rect x="0" y="0" width="22.773" height="22.773"/>
                    </clipPath>
                    <g clip-path="url(#_clip2)">
                        <g>
                            <g>
                                <path d="M15.769,0L15.931,0C16.061,1.606 15.448,2.806 14.703,3.675C13.972,4.538 12.971,5.375 11.352,5.248C11.244,3.665 11.858,2.554 12.602,1.687C13.292,0.879 14.557,0.16 15.769,0Z" style="fill:white;fill-rule:nonzero;"/>
                                <path d="M20.67,16.716L20.67,16.761C20.215,18.139 19.566,19.32 18.774,20.416C18.051,21.411 17.165,22.75 15.583,22.75C14.216,22.75 13.308,21.871 11.907,21.847C10.425,21.823 9.61,22.582 8.255,22.773L7.793,22.773C6.798,22.629 5.995,21.841 5.41,21.131C3.685,19.033 2.352,16.323 2.104,12.855L2.104,11.836C2.209,9.354 3.415,7.336 5.018,6.358C5.864,5.838 7.027,5.395 8.322,5.593C8.877,5.679 9.444,5.869 9.941,6.057C10.412,6.238 11.001,6.559 11.559,6.542C11.937,6.531 12.313,6.334 12.694,6.195C13.81,5.792 14.904,5.33 16.346,5.547C18.079,5.809 19.309,6.579 20.069,7.767C18.603,8.7 17.444,10.106 17.642,12.507C17.818,14.688 19.086,15.964 20.67,16.716Z" style="fill:white;fill-rule:nonzero;"/>
                            </g>
                        </g>
                    </g>
                </g>
            </g>
        </g>
        <g id="Table" transform="matrix(1.03968,0,0,1.05444,-727.105,78.1217)">
            <path d="M1234.76,1639.62L1234.47,1222.16L1703.56,1221.2L1704.34,1681.14L1731.95,1682.06L1731.17,1220.45L1780.65,1222.18L1782,1627.97L1809.43,1629.41L1807.13,1221.75L1834.61,1221.28L1835.34,1155.54L1102.37,1153.66L1103.06,1219.71L1129.07,1221.33L1131.14,1630.34L1158.39,1632.73L1158.03,1221.68L1206.64,1222.05L1207.28,1638.86L1234.76,1639.62Z" style="fill:rgb(25,23,69);"/>
        </g>
        <g id="Cat" transform="matrix(0.965372,0,0,0.97908,-638.825,37.0557)">
            <path d="M2069.39,1559.29C2069.39,1559.29 2093.72,1558.63 2105.97,1546.84C2118.23,1535.06 2118.98,1528.46 2120.3,1523.37C2121.62,1518.28 2126.43,1515.73 2126.43,1515.73L2132.18,1509.98C2132.18,1509.98 2145.38,1527.24 2147.26,1529.97C2149.15,1532.7 2164.99,1567.49 2165.74,1569.47C2166.5,1571.45 2182.14,1636.51 2183.79,1688.01C2185.43,1739.51 2178.1,1805.41 2172.94,1834.87C2167.78,1864.33 2153.05,1862.86 2153.05,1862.86C2153.05,1862.86 2144.03,1870.59 2137.22,1872.43C2130.41,1874.27 2123.41,1870.77 2123.59,1865.43C2123.78,1860.1 2132.43,1854.76 2134.09,1851.62C2135.75,1848.49 2137.22,1843.34 2132.98,1840.76C2128.75,1838.18 2127.28,1835.61 2121.01,1835.42C2114.76,1835.24 2111.62,1835.42 2109.05,1835.97C2106.47,1836.53 2103.71,1839.1 2102.97,1844.26C2102.23,1849.41 2104.26,1857.15 2103.34,1860.65C2102.42,1864.15 2103.89,1871.69 2099.47,1874.46C2095.05,1877.22 2089.9,1878.32 2084.93,1876.67C2079.95,1875.01 2069.27,1870.04 2066.33,1867.83C2063.38,1865.62 2062.09,1862.3 2057.86,1859.91C2053.62,1857.52 2050.12,1854.39 2047.55,1852.55C2044.97,1850.7 2042.39,1846.84 2040.92,1851.62C2039.44,1856.41 2040.18,1866.36 2039.26,1869.85C2038.34,1873.35 2035.58,1872.06 2027.66,1871.33C2019.74,1870.59 2019.01,1869.67 2015.88,1866.36C2012.75,1863.04 2006.85,1856.78 2004.46,1856.96C2002.07,1857.15 1995.81,1861.57 2001.51,1870.04C2007.22,1878.51 2021.58,1886.61 2026.37,1889.74C2031.16,1892.87 2062.46,1901.58 2068.91,1902.26C2075.35,1902.94 2112.36,1902.02 2121.2,1900.36C2130.04,1898.7 2152.5,1894.47 2159.13,1891.16C2165.76,1887.84 2181.96,1883.42 2188.78,1878.63C2195.59,1873.85 2200.74,1871.27 2200.74,1871.27L2201.2,1886.78C2201.2,1886.78 2203.61,1917.06 2159.97,1935.47C2116.34,1953.88 2074.54,1950.2 2062.57,1947.25C2050.6,1944.31 2004.57,1930.87 1997.94,1919.82C1991.31,1908.77 1975.66,1915.58 1960.01,1868.63C1944.35,1821.67 1957.98,1830.88 1957.43,1823.88C1956.88,1816.89 1949.61,1773.16 1952.09,1760.79C1954.56,1748.42 1971.26,1702.35 1987.46,1669.5C2003.66,1636.65 1997.3,1597.85 1993.99,1583.49C1990.67,1569.13 1996.38,1559.37 1998.78,1554.58C2001.17,1549.8 2006.33,1540.22 2008.35,1538.01C2010.38,1535.8 2010.75,1531.93 2014.06,1533.41C2017.37,1534.88 2020.5,1538.19 2021.98,1543.17C2023.45,1548.14 2024,1555.13 2028.61,1557.9C2033.21,1560.66 2034.5,1562.13 2041.68,1562.13C2048.86,1562.13 2069.39,1559.29 2069.39,1559.29Z" style="fill:rgb(21,17,64);"/>
            <g transform="matrix(0.906158,0,0,0.906158,189.929,156.353)">
                <path d="M2023.93,1625.2L2110.82,1618.58C2110.82,1618.58 2113.98,1663.75 2071.98,1666.05C2029.97,1668.35 2023.93,1625.2 2023.93,1625.2Z" style="fill:white;"/>
            </g>
            <g transform="matrix(0.906158,0,0,0.906158,189.929,156.353)">
                <path d="M2136.71,1615.7L2220.15,1609.08C2220.15,1609.08 2223.31,1647.92 2181.02,1650.51C2138.73,1653.1 2136.71,1615.7 2136.71,1615.7Z" style="fill:white;"/>
            </g>
            <g id="CatEyes" transform="matrix(0.906158,0,0,0.906158,189.929,156.353)">
                <g transform="matrix(1,0,0,1,1.88552,3.41753)">
                    <path d="M2088.51,1616.87C2094.3,1616.44 2096.74,1621.88 2096.7,1624.43C2096.66,1626.98 2095.97,1631.23 2091.91,1631.62C2087.86,1632 2083.88,1630.15 2083.07,1628.03C2082.26,1625.9 2081.33,1624.01 2082.37,1621.77C2083.41,1619.53 2082.72,1617.29 2088.51,1616.87Z" style="fill:rgb(21,17,64);"/>
                </g>
                <g transform="matrix(1,0,0,1,0.117838,4.00675)">
                    <path d="M2184.99,1611.88C2184.99,1611.88 2187.93,1607.5 2192.08,1607.65C2196.23,1607.81 2198.72,1610.14 2199.7,1612.78C2200.68,1615.42 2199.25,1618.74 2198.04,1620.33C2196.83,1621.91 2195.55,1623.42 2192.31,1623.12C2189.07,1622.82 2186.65,1621.23 2186.12,1619.57C2185.6,1617.91 2184.99,1611.88 2184.99,1611.88Z" style="fill:rgb(21,17,64);"/>
                </g>
            </g>
            <g transform="matrix(1.0378,0.0478646,-0.0478646,1.0378,757.365,-39.2629)">
                <g transform="matrix(72,0,0,72,1282.61,1682.07)">
                    <path d="M0.369,-0.042L0.369,-0.213L0.122,-0.213L0.122,-0.608C0.122,-0.619 0.126,-0.629 0.135,-0.637C0.143,-0.646 0.153,-0.65 0.164,-0.65C0.175,-0.65 0.185,-0.646 0.193,-0.637C0.201,-0.629 0.205,-0.619 0.205,-0.608L0.205,-0.296L0.369,-0.296L0.369,-0.536C0.369,-0.548 0.373,-0.557 0.381,-0.566C0.389,-0.574 0.399,-0.578 0.41,-0.578C0.422,-0.578 0.431,-0.574 0.439,-0.566C0.447,-0.557 0.451,-0.548 0.451,-0.536L0.451,-0.296C0.463,-0.296 0.472,-0.292 0.48,-0.284C0.488,-0.276 0.492,-0.266 0.492,-0.255C0.492,-0.243 0.488,-0.234 0.48,-0.226C0.472,-0.218 0.463,-0.214 0.451,-0.214L0.451,-0.042C0.451,-0.031 0.447,-0.021 0.439,-0.013C0.431,-0.005 0.421,-0.001 0.41,-0.001C0.399,-0.001 0.389,-0.005 0.381,-0.013C0.373,-0.021 0.369,-0.031 0.369,-0.042Z" style="fill:rgb(73,68,201);fill-rule:nonzero;"/>
                </g>
                <g transform="matrix(72,0,0,72,1326.09,1682.07)">
                    <path d="M0.099,-0.08L0.099,-0.571C0.099,-0.592 0.107,-0.611 0.123,-0.626C0.138,-0.642 0.157,-0.65 0.178,-0.65L0.434,-0.65C0.455,-0.65 0.474,-0.642 0.489,-0.626C0.504,-0.611 0.512,-0.592 0.512,-0.571L0.512,-0.08C0.512,-0.058 0.504,-0.04 0.489,-0.024C0.474,-0.009 0.455,-0.001 0.433,-0.001L0.178,-0.001C0.156,-0.001 0.137,-0.009 0.122,-0.024C0.107,-0.04 0.099,-0.058 0.099,-0.08ZM0.431,-0.083L0.431,-0.567L0.181,-0.567L0.181,-0.083L0.431,-0.083Z" style="fill:rgb(73,68,201);fill-rule:nonzero;"/>
                </g>
                <g transform="matrix(72,0,0,72,1369.58,1682.07)">
                    <path d="M0.369,-0.042L0.369,-0.213L0.122,-0.213L0.122,-0.608C0.122,-0.619 0.126,-0.629 0.135,-0.637C0.143,-0.646 0.153,-0.65 0.164,-0.65C0.175,-0.65 0.185,-0.646 0.193,-0.637C0.201,-0.629 0.205,-0.619 0.205,-0.608L0.205,-0.296L0.369,-0.296L0.369,-0.536C0.369,-0.548 0.373,-0.557 0.381,-0.566C0.389,-0.574 0.399,-0.578 0.41,-0.578C0.422,-0.578 0.431,-0.574 0.439,-0.566C0.447,-0.557 0.451,-0.548 0.451,-0.536L0.451,-0.296C0.463,-0.296 0.472,-0.292 0.48,-0.284C0.488,-0.276 0.492,-0.266 0.492,-0.255C0.492,-0.243 0.488,-0.234 0.48,-0.226C0.472,-0.218 0.463,-0.214 0.451,-0.214L0.451,-0.042C0.451,-0.031 0.447,-0.021 0.439,-0.013C0.431,-0.005 0.421,-0.001 0.41,-0.001C0.399,-0.001 0.389,-0.005 0.381,-0.013C0.373,-0.021 0.369,-0.031 0.369,-0.042Z" style="fill:rgb(73,68,201);fill-rule:nonzero;"/>
                </g>
            </g>
        </g>
        <g id="Shadow" transform="matrix(0.788355,0,0,0.79955,-838.732,258.197)">
            <path d="M1583.3,2029.44L1994.02,2032.1C1994.02,2032.1 1992.26,2049.66 2009.83,2054.92C2027.38,2060.19 2319.76,2061.95 2319.76,2061.95C2319.76,2061.95 2349.2,2047.33 2342.59,2039.12C2340.11,2036.03 2483.7,1998.61 2486.59,1989.95C2500.56,1992.59 2538.89,1934.97 2526.23,1920.83C2518.53,1912.23 2356.64,1871.42 2345.23,1860.88C2333.81,1850.35 2019.37,1847.93 1882.51,1841.57C1753.62,1835.57 1437.2,1772.47 1431.21,1764.3L1303.5,1716.4C1303.5,1716.4 1408.38,1881.38 1435.6,1903.33C1462.81,1925.28 1583.3,2029.44 1583.3,2029.44Z" style="fill:rgb(25,23,69);"/>
        </g>
        <g id="Numbers3" transform="matrix(0.969719,0,0,0.997961,0.955225,-37.5031)">
            <g transform="matrix(0.838678,0,0,0.826517,829.992,205.765)">
                <g transform="matrix(94.7297,0,0,94.7297,66.1827,190.698)">
                    <path d="M0.369,-0.042L0.369,-0.213L0.122,-0.213L0.122,-0.608C0.122,-0.619 0.126,-0.629 0.135,-0.637C0.143,-0.646 0.153,-0.65 0.164,-0.65C0.175,-0.65 0.185,-0.646 0.193,-0.637C0.201,-0.629 0.205,-0.619 0.205,-0.608L0.205,-0.296L0.369,-0.296L0.369,-0.536C0.369,-0.548 0.373,-0.557 0.381,-0.566C0.389,-0.574 0.399,-0.578 0.41,-0.578C0.422,-0.578 0.431,-0.574 0.439,-0.566C0.447,-0.557 0.451,-0.548 0.451,-0.536L0.451,-0.296C0.463,-0.296 0.472,-0.292 0.48,-0.284C0.488,-0.276 0.492,-0.266 0.492,-0.255C0.492,-0.243 0.488,-0.234 0.48,-0.226C0.472,-0.218 0.463,-0.214 0.451,-0.214L0.451,-0.042C0.451,-0.031 0.447,-0.021 0.439,-0.013C0.431,-0.005 0.421,-0.001 0.41,-0.001C0.399,-0.001 0.389,-0.005 0.381,-0.013C0.373,-0.021 0.369,-0.031 0.369,-0.042Z" style="fill:rgb(65,61,181);fill-rule:nonzero;"/>
                </g>
            </g>
            <g transform="matrix(0.838678,0,0,0.826517,831.66,296.968)">
                <g transform="matrix(94.7297,0,0,94.7297,66.1827,190.698)">
                    <path d="M0.143,-0.649L0.184,-0.649C0.195,-0.649 0.205,-0.645 0.213,-0.637C0.221,-0.629 0.225,-0.619 0.225,-0.608C0.225,-0.597 0.221,-0.587 0.213,-0.579C0.205,-0.571 0.195,-0.567 0.184,-0.567L0.184,-0.296L0.473,-0.296C0.484,-0.296 0.494,-0.292 0.502,-0.283C0.51,-0.275 0.514,-0.265 0.514,-0.254L0.514,-0.042C0.514,-0.031 0.51,-0.021 0.502,-0.013C0.493,-0.005 0.484,-0.001 0.472,-0.001L0.143,-0.001C0.132,-0.001 0.122,-0.005 0.114,-0.013C0.105,-0.021 0.101,-0.031 0.101,-0.042L0.101,-0.608C0.101,-0.619 0.105,-0.629 0.113,-0.637C0.121,-0.645 0.131,-0.649 0.143,-0.649ZM0.183,-0.213L0.183,-0.083L0.431,-0.083L0.431,-0.213L0.183,-0.213Z" style="fill:rgb(65,61,181);fill-rule:nonzero;"/>
                </g>
            </g>
            <g transform="matrix(0.838678,0,0,0.826517,831.66,485.916)">
                <g transform="matrix(94.7297,0,0,94.7297,66.1827,190.698)">
                    <path d="M0.143,-0.649L0.184,-0.649C0.195,-0.649 0.205,-0.645 0.213,-0.637C0.221,-0.629 0.225,-0.619 0.225,-0.608C0.225,-0.597 0.221,-0.587 0.213,-0.579C0.205,-0.571 0.195,-0.567 0.184,-0.567L0.184,-0.296L0.473,-0.296C0.484,-0.296 0.494,-0.292 0.502,-0.283C0.51,-0.275 0.514,-0.265 0.514,-0.254L0.514,-0.042C0.514,-0.031 0.51,-0.021 0.502,-0.013C0.493,-0.005 0.484,-0.001 0.472,-0.001L0.143,-0.001C0.132,-0.001 0.122,-0.005 0.114,-0.013C0.105,-0.021 0.101,-0.031 0.101,-0.042L0.101,-0.608C0.101,-0.619 0.105,-0.629 0.113,-0.637C0.121,-0.645 0.131,-0.649 0.143,-0.649ZM0.183,-0.213L0.183,-0.083L0.431,-0.083L0.431,-0.213L0.183,-0.213Z" style="fill:rgb(25,23,71);fill-rule:nonzero;"/>
                </g>
            </g>
            <g transform="matrix(0.838678,0,0,0.826517,831.815,591.819)">
                <g transform="matrix(94.7297,0,0,94.7297,66.1827,190.698)">
                    <path d="M0.099,-0.572L0.099,-0.607C0.099,-0.618 0.103,-0.628 0.111,-0.636C0.119,-0.644 0.129,-0.648 0.14,-0.648L0.512,-0.648L0.512,-0.396C0.512,-0.383 0.507,-0.372 0.497,-0.363L0.346,-0.234L0.346,-0.043C0.346,-0.032 0.342,-0.022 0.334,-0.013C0.326,-0.005 0.317,-0.001 0.305,-0.001C0.294,-0.001 0.284,-0.005 0.276,-0.013C0.267,-0.021 0.263,-0.031 0.263,-0.042L0.263,-0.249C0.263,-0.265 0.268,-0.277 0.278,-0.285L0.429,-0.413L0.429,-0.566L0.181,-0.566C0.175,-0.542 0.162,-0.531 0.14,-0.531C0.129,-0.531 0.119,-0.535 0.111,-0.543C0.103,-0.551 0.099,-0.56 0.099,-0.572Z" style="fill:rgb(25,23,71);fill-rule:nonzero;"/>
                </g>
            </g>
            <g transform="matrix(0.838678,0,0,0.826517,831.583,394.618)">
                <g transform="matrix(94.7297,0,0,94.7297,66.1827,190.698)">
                    <path d="M0.473,-0.002L0.432,-0.002C0.421,-0.002 0.411,-0.006 0.403,-0.014C0.395,-0.022 0.391,-0.032 0.391,-0.043C0.391,-0.054 0.395,-0.064 0.403,-0.072C0.411,-0.08 0.421,-0.084 0.432,-0.084L0.432,-0.355L0.143,-0.355C0.132,-0.355 0.122,-0.359 0.114,-0.367C0.106,-0.375 0.102,-0.385 0.102,-0.396L0.102,-0.609C0.102,-0.62 0.106,-0.63 0.114,-0.638C0.122,-0.646 0.132,-0.65 0.143,-0.65L0.473,-0.65C0.484,-0.65 0.494,-0.646 0.502,-0.638C0.51,-0.63 0.514,-0.62 0.514,-0.609L0.514,-0.043C0.514,-0.032 0.51,-0.022 0.502,-0.014C0.494,-0.006 0.485,-0.002 0.473,-0.002ZM0.433,-0.438L0.433,-0.567L0.184,-0.567L0.184,-0.438L0.433,-0.438Z" style="fill:rgb(65,61,181);fill-rule:nonzero;"/>
                </g>
            </g>
        </g>
        <g id="Numbers2" transform="matrix(0.969719,0,0,0.997961,0.955225,-55.8122)">
            <g transform="matrix(0.838678,0,0,0.826517,629.074,280.077)">
                <g transform="matrix(94.7297,0,0,94.7297,66.1827,190.698)">
                    <path d="M0.099,-0.572L0.099,-0.607C0.099,-0.618 0.103,-0.628 0.111,-0.636C0.119,-0.644 0.129,-0.648 0.14,-0.648L0.512,-0.648L0.512,-0.396C0.512,-0.383 0.507,-0.372 0.497,-0.363L0.346,-0.234L0.346,-0.043C0.346,-0.032 0.342,-0.022 0.334,-0.013C0.326,-0.005 0.317,-0.001 0.305,-0.001C0.294,-0.001 0.284,-0.005 0.276,-0.013C0.267,-0.021 0.263,-0.031 0.263,-0.042L0.263,-0.249C0.263,-0.265 0.268,-0.277 0.278,-0.285L0.429,-0.413L0.429,-0.566L0.181,-0.566C0.175,-0.542 0.162,-0.531 0.14,-0.531C0.129,-0.531 0.119,-0.535 0.111,-0.543C0.103,-0.551 0.099,-0.56 0.099,-0.572Z" style="fill:rgb(65,61,181);fill-rule:nonzero;"/>
                </g>
            </g>
            <g transform="matrix(0.838678,0,0,0.826517,627.251,92.185)">
                <g transform="matrix(94.7297,0,0,94.7297,66.1827,190.698)">
                    <path d="M0.369,-0.042L0.369,-0.213L0.122,-0.213L0.122,-0.608C0.122,-0.619 0.126,-0.629 0.135,-0.637C0.143,-0.646 0.153,-0.65 0.164,-0.65C0.175,-0.65 0.185,-0.646 0.193,-0.637C0.201,-0.629 0.205,-0.619 0.205,-0.608L0.205,-0.296L0.369,-0.296L0.369,-0.536C0.369,-0.548 0.373,-0.557 0.381,-0.566C0.389,-0.574 0.399,-0.578 0.41,-0.578C0.422,-0.578 0.431,-0.574 0.439,-0.566C0.447,-0.557 0.451,-0.548 0.451,-0.536L0.451,-0.296C0.463,-0.296 0.472,-0.292 0.48,-0.284C0.488,-0.276 0.492,-0.266 0.492,-0.255C0.492,-0.243 0.488,-0.234 0.48,-0.226C0.472,-0.218 0.463,-0.214 0.451,-0.214L0.451,-0.042C0.451,-0.031 0.447,-0.021 0.439,-0.013C0.431,-0.005 0.421,-0.001 0.41,-0.001C0.399,-0.001 0.389,-0.005 0.381,-0.013C0.373,-0.021 0.369,-0.031 0.369,-0.042Z" style="fill:rgb(25,23,71);fill-rule:nonzero;"/>
                </g>
            </g>
            <g transform="matrix(0.838678,0,0,0.826517,628.919,183.388)">
                <g transform="matrix(94.7297,0,0,94.7297,66.1827,190.698)">
                    <path d="M0.143,-0.649L0.184,-0.649C0.195,-0.649 0.205,-0.645 0.213,-0.637C0.221,-0.629 0.225,-0.619 0.225,-0.608C0.225,-0.597 0.221,-0.587 0.213,-0.579C0.205,-0.571 0.195,-0.567 0.184,-0.567L0.184,-0.296L0.473,-0.296C0.484,-0.296 0.494,-0.292 0.502,-0.283C0.51,-0.275 0.514,-0.265 0.514,-0.254L0.514,-0.042C0.514,-0.031 0.51,-0.021 0.502,-0.013C0.493,-0.005 0.484,-0.001 0.472,-0.001L0.143,-0.001C0.132,-0.001 0.122,-0.005 0.114,-0.013C0.105,-0.021 0.101,-0.031 0.101,-0.042L0.101,-0.608C0.101,-0.619 0.105,-0.629 0.113,-0.637C0.121,-0.645 0.131,-0.649 0.143,-0.649ZM0.183,-0.213L0.183,-0.083L0.431,-0.083L0.431,-0.213L0.183,-0.213Z" style="fill:rgb(25,23,71);fill-rule:nonzero;"/>
                </g>
            </g>
            <g transform="matrix(0.838678,0,0,0.826517,628.919,372.336)">
                <g transform="matrix(94.7297,0,0,94.7297,66.1827,190.698)">
                    <path d="M0.143,-0.649L0.184,-0.649C0.195,-0.649 0.205,-0.645 0.213,-0.637C0.221,-0.629 0.225,-0.619 0.225,-0.608C0.225,-0.597 0.221,-0.587 0.213,-0.579C0.205,-0.571 0.195,-0.567 0.184,-0.567L0.184,-0.296L0.473,-0.296C0.484,-0.296 0.494,-0.292 0.502,-0.283C0.51,-0.275 0.514,-0.265 0.514,-0.254L0.514,-0.042C0.514,-0.031 0.51,-0.021 0.502,-0.013C0.493,-0.005 0.484,-0.001 0.472,-0.001L0.143,-0.001C0.132,-0.001 0.122,-0.005 0.114,-0.013C0.105,-0.021 0.101,-0.031 0.101,-0.042L0.101,-0.608C0.101,-0.619 0.105,-0.629 0.113,-0.637C0.121,-0.645 0.131,-0.649 0.143,-0.649ZM0.183,-0.213L0.183,-0.083L0.431,-0.083L0.431,-0.213L0.183,-0.213Z" style="fill:rgb(65,61,181);fill-rule:nonzero;"/>
                </g>
            </g>
            <g transform="matrix(0.838678,0,0,0.826517,629.074,478.238)">
                <g transform="matrix(94.7297,0,0,94.7297,66.1827,190.698)">
                    <path d="M0.099,-0.572L0.099,-0.607C0.099,-0.618 0.103,-0.628 0.111,-0.636C0.119,-0.644 0.129,-0.648 0.14,-0.648L0.512,-0.648L0.512,-0.396C0.512,-0.383 0.507,-0.372 0.497,-0.363L0.346,-0.234L0.346,-0.043C0.346,-0.032 0.342,-0.022 0.334,-0.013C0.326,-0.005 0.317,-0.001 0.305,-0.001C0.294,-0.001 0.284,-0.005 0.276,-0.013C0.267,-0.021 0.263,-0.031 0.263,-0.042L0.263,-0.249C0.263,-0.265 0.268,-0.277 0.278,-0.285L0.429,-0.413L0.429,-0.566L0.181,-0.566C0.175,-0.542 0.162,-0.531 0.14,-0.531C0.129,-0.531 0.119,-0.535 0.111,-0.543C0.103,-0.551 0.099,-0.56 0.099,-0.572Z" style="fill:rgb(25,23,71);fill-rule:nonzero;"/>
                </g>
            </g>
            <g transform="matrix(0.838678,0,0,0.826517,629.152,590.09)">
                <g transform="matrix(94.7297,0,0,94.7297,66.1827,190.698)">
                    <path d="M0.098,-0.084L0.098,-0.284C0.098,-0.307 0.106,-0.326 0.123,-0.342C0.139,-0.358 0.158,-0.366 0.181,-0.366L0.181,-0.608C0.181,-0.619 0.185,-0.629 0.193,-0.637C0.201,-0.645 0.21,-0.649 0.222,-0.649L0.389,-0.649C0.401,-0.649 0.41,-0.645 0.418,-0.637C0.426,-0.629 0.43,-0.619 0.43,-0.608L0.43,-0.366C0.452,-0.366 0.472,-0.358 0.488,-0.343C0.504,-0.327 0.512,-0.307 0.512,-0.284L0.512,-0.083C0.512,-0.061 0.504,-0.041 0.488,-0.025C0.472,-0.009 0.452,-0.001 0.43,-0.001L0.181,-0.001C0.158,-0.001 0.138,-0.009 0.122,-0.026C0.106,-0.043 0.098,-0.063 0.098,-0.084ZM0.263,-0.567L0.263,-0.366L0.348,-0.366L0.348,-0.567L0.263,-0.567ZM0.181,-0.284L0.181,-0.083L0.43,-0.083L0.43,-0.284L0.181,-0.284Z" style="fill:rgb(65,61,181);fill-rule:nonzero;"/>
                </g>
            </g>
        </g>
        <g id="Numbers1" transform="matrix(0.969719,0,0,0.997961,0.955225,-73.1041)">
            <g transform="matrix(0.838678,0,0,0.826517,731.901,590.808)">
                <g transform="matrix(94.7297,0,0,94.7297,66.1827,190.698)">
                    <path d="M0.139,-0.083L0.265,-0.083L0.265,-0.567L0.141,-0.567C0.13,-0.567 0.12,-0.571 0.112,-0.579C0.104,-0.587 0.1,-0.597 0.1,-0.608C0.1,-0.619 0.104,-0.629 0.112,-0.637C0.12,-0.645 0.13,-0.649 0.141,-0.649L0.347,-0.649L0.347,-0.083L0.429,-0.083L0.429,-0.254C0.429,-0.265 0.433,-0.275 0.441,-0.283C0.449,-0.291 0.459,-0.295 0.47,-0.295C0.482,-0.295 0.491,-0.291 0.499,-0.283C0.507,-0.275 0.511,-0.265 0.511,-0.254L0.511,-0.042C0.511,-0.031 0.507,-0.021 0.499,-0.013C0.491,-0.005 0.482,-0.001 0.47,-0.001L0.139,-0.001C0.128,-0.001 0.118,-0.005 0.11,-0.013C0.102,-0.022 0.098,-0.032 0.098,-0.043C0.098,-0.054 0.102,-0.063 0.11,-0.071C0.118,-0.079 0.128,-0.083 0.139,-0.083Z" style="fill:rgb(65,61,181);fill-rule:nonzero;"/>
                </g>
            </g>
            <g transform="matrix(0.838678,0,0,0.826517,731.979,481.948)">
                <g transform="matrix(94.7297,0,0,94.7297,66.1827,190.698)">
                    <path d="M0.473,-0.001L0.1,-0.001L0.1,-0.284C0.1,-0.307 0.108,-0.326 0.124,-0.343C0.14,-0.359 0.16,-0.367 0.182,-0.367L0.431,-0.367L0.431,-0.567L0.138,-0.567C0.126,-0.567 0.117,-0.571 0.109,-0.579C0.101,-0.587 0.097,-0.597 0.097,-0.608C0.097,-0.619 0.101,-0.629 0.109,-0.637C0.117,-0.645 0.126,-0.649 0.138,-0.649L0.431,-0.649C0.454,-0.649 0.473,-0.641 0.49,-0.625C0.506,-0.609 0.514,-0.589 0.514,-0.567L0.514,-0.367C0.514,-0.344 0.506,-0.324 0.49,-0.308C0.473,-0.292 0.454,-0.284 0.431,-0.284L0.182,-0.284L0.182,-0.083L0.473,-0.083C0.484,-0.083 0.494,-0.079 0.502,-0.071C0.51,-0.063 0.514,-0.053 0.514,-0.042C0.514,-0.031 0.51,-0.021 0.502,-0.013C0.494,-0.005 0.484,-0.001 0.473,-0.001Z" style="fill:rgb(65,61,181);fill-rule:nonzero;"/>
                </g>
            </g>
            <g transform="matrix(0.838678,0,0,0.826517,731.901,394.471)">
                <g transform="matrix(94.7297,0,0,94.7297,66.1827,190.698)">
                    <path d="M0.514,-0.567L0.514,-0.413C0.514,-0.377 0.503,-0.348 0.481,-0.326C0.504,-0.301 0.515,-0.273 0.515,-0.243L0.515,-0.083C0.515,-0.061 0.507,-0.041 0.491,-0.025C0.474,-0.009 0.455,-0.001 0.432,-0.001L0.142,-0.001C0.131,-0.001 0.121,-0.005 0.113,-0.013C0.105,-0.021 0.101,-0.031 0.101,-0.042C0.101,-0.053 0.105,-0.063 0.113,-0.071C0.121,-0.079 0.131,-0.083 0.142,-0.083L0.431,-0.083L0.431,-0.243C0.431,-0.255 0.427,-0.264 0.419,-0.273C0.411,-0.281 0.402,-0.285 0.39,-0.285L0.225,-0.285C0.214,-0.285 0.204,-0.289 0.196,-0.297C0.188,-0.305 0.184,-0.314 0.184,-0.326C0.184,-0.338 0.188,-0.347 0.196,-0.355C0.204,-0.363 0.214,-0.367 0.225,-0.367L0.391,-0.367C0.402,-0.367 0.412,-0.371 0.42,-0.379C0.428,-0.387 0.432,-0.397 0.432,-0.408L0.432,-0.567L0.139,-0.567C0.128,-0.567 0.118,-0.571 0.11,-0.579C0.102,-0.587 0.098,-0.597 0.098,-0.608C0.098,-0.619 0.102,-0.629 0.11,-0.637C0.118,-0.645 0.128,-0.649 0.139,-0.649L0.432,-0.649C0.455,-0.649 0.474,-0.641 0.49,-0.625C0.506,-0.609 0.514,-0.589 0.514,-0.567Z" style="fill:rgb(65,61,181);fill-rule:nonzero;"/>
                </g>
            </g>
            <g transform="matrix(0.838678,0,0,0.826517,731.901,301.378)">
                <g transform="matrix(94.7297,0,0,94.7297,66.1827,190.698)">
                    <path d="M0.098,-0.084L0.098,-0.284C0.098,-0.307 0.106,-0.326 0.123,-0.342C0.139,-0.358 0.158,-0.366 0.181,-0.366L0.181,-0.608C0.181,-0.619 0.185,-0.629 0.193,-0.637C0.201,-0.645 0.21,-0.649 0.222,-0.649L0.389,-0.649C0.401,-0.649 0.41,-0.645 0.418,-0.637C0.426,-0.629 0.43,-0.619 0.43,-0.608L0.43,-0.366C0.452,-0.366 0.472,-0.358 0.488,-0.343C0.504,-0.327 0.512,-0.307 0.512,-0.284L0.512,-0.083C0.512,-0.061 0.504,-0.041 0.488,-0.025C0.472,-0.009 0.452,-0.001 0.43,-0.001L0.181,-0.001C0.158,-0.001 0.138,-0.009 0.122,-0.026C0.106,-0.043 0.098,-0.063 0.098,-0.084ZM0.263,-0.567L0.263,-0.366L0.348,-0.366L0.348,-0.567L0.263,-0.567ZM0.181,-0.284L0.181,-0.083L0.43,-0.083L0.43,-0.284L0.181,-0.284Z" style="fill:rgb(25,23,71);fill-rule:nonzero;"/>
                </g>
            </g>
        </g>
        <g id="Stars1" serif:id="Stars">
            <g id="S26" transform="matrix(0.302577,0,0,0.306874,1078.91,296.517)">
                <circle cx="1838.76" cy="135.676" r="14.1" style="fill:rgb(117,123,178);"/>
            </g>
            <g id="S25" transform="matrix(0.302577,0,0,0.306874,892.78,198.606)">
                <circle cx="1838.76" cy="135.676" r="14.1" style="fill:rgb(117,123,178);"/>
            </g>
            <g id="S24" transform="matrix(0.302577,0,0,0.306874,1062.75,685.518)">
                <circle cx="1838.76" cy="135.676" r="14.1" style="fill:rgb(117,123,178);"/>
            </g>
            <g id="S23" transform="matrix(0.302577,0,0,0.306874,784.123,550.826)">
                <circle cx="1838.76" cy="135.676" r="14.1" style="fill:rgb(117,123,178);"/>
            </g>
            <g id="S22" transform="matrix(0.302577,0,0,0.306874,560.478,144.591)">
                <circle cx="1838.76" cy="135.676" r="14.1" style="fill:rgb(117,123,178);"/>
            </g>
            <g id="S21" transform="matrix(0.302577,0,0,0.306874,920.486,472.357)">
                <circle cx="1838.76" cy="135.676" r="14.1" style="fill:rgb(117,123,178);"/>
            </g>
            <g id="S20" transform="matrix(0.302577,0,0,0.306874,566.364,319.321)">
                <circle cx="1838.76" cy="135.676" r="14.1" style="fill:rgb(117,123,178);"/>
            </g>
            <g id="S19" transform="matrix(0.135146,0,0,0.124524,1348.92,702.253)">
                <circle cx="1838.76" cy="135.676" r="14.1" style="fill:rgb(117,123,178);"/>
            </g>
            <g id="S18" transform="matrix(0.135146,0,0,0.124524,1348.92,702.253)">
                <circle cx="1838.76" cy="135.676" r="14.1" style="fill:rgb(117,123,178);"/>
            </g>
            <g id="S17" transform="matrix(0.135146,0,0,0.124524,1459.89,442.541)">
                <circle cx="1838.76" cy="135.676" r="14.1" style="fill:rgb(117,123,178);"/>
            </g>
            <g id="S16" transform="matrix(0.135146,0,0,0.124524,1459.89,442.541)">
                <circle cx="1838.76" cy="135.676" r="14.1" style="fill:rgb(117,123,178);"/>
            </g>
            <g id="S15" transform="matrix(0.135146,0,0,0.124524,687.048,195.796)">
                <circle cx="1838.76" cy="135.676" r="14.1" style="fill:rgb(117,123,178);"/>
            </g>
            <g id="S14" transform="matrix(0.135146,0,0,0.124524,687.048,195.796)">
                <circle cx="1838.76" cy="135.676" r="14.1" style="fill:rgb(117,123,178);"/>
            </g>
            <g id="S13" transform="matrix(0.135146,0,0,0.124524,696.183,253.695)">
                <circle cx="1838.76" cy="135.676" r="14.1" style="fill:rgb(117,123,178);"/>
            </g>
            <g id="S12" transform="matrix(0.135146,0,0,0.124524,1077.92,443.322)">
                <circle cx="1838.76" cy="135.676" r="14.1" style="fill:rgb(117,123,178);"/>
            </g>
            <g id="S121" serif:id="S12" transform="matrix(0.135146,0,0,0.124524,1506.13,625.003)">
                <circle cx="1838.76" cy="135.676" r="14.1" style="fill:rgb(117,123,178);"/>
            </g>
            <g id="S11" transform="matrix(0.135146,0,0,0.124524,1334.78,402.563)">
                <circle cx="1838.76" cy="135.676" r="14.1" style="fill:rgb(117,123,178);"/>
            </g>
            <g id="S10" transform="matrix(0.135146,0,0,0.124524,1387.95,535.245)">
                <circle cx="1838.76" cy="135.676" r="14.1" style="fill:rgb(117,123,178);"/>
            </g>
            <g id="S9" transform="matrix(0.135146,0,0,0.124524,944.258,107.424)">
                <circle cx="1838.76" cy="135.676" r="14.1" style="fill:rgb(117,123,178);"/>
            </g>
            <g id="S8" transform="matrix(0.135146,0,0,0.124524,840.173,192.804)">
                <circle cx="1838.76" cy="135.676" r="14.1" style="fill:rgb(117,123,178);"/>
            </g>
            <g id="S7" transform="matrix(0.135146,0,0,0.124524,1082.34,392.63)">
                <circle cx="1838.76" cy="135.676" r="14.1" style="fill:rgb(117,123,178);"/>
            </g>
            <g id="S6" transform="matrix(0.135146,0,0,0.124524,1107.51,486.238)">
                <circle cx="1838.76" cy="135.676" r="14.1" style="fill:rgb(117,123,178);"/>
            </g>
            <g id="S5" transform="matrix(0.135146,0,0,0.124524,1110.75,431.077)">
                <circle cx="1838.76" cy="135.676" r="14.1" style="fill:rgb(117,123,178);"/>
            </g>
            <g id="S4" transform="matrix(0.135146,0,0,0.124524,933.605,525.695)">
                <circle cx="1838.76" cy="135.676" r="14.1" style="fill:rgb(117,123,178);"/>
            </g>
            <g id="S3" transform="matrix(0.135146,0,0,0.124524,1184.63,350.796)">
                <circle cx="1838.76" cy="135.676" r="14.1" style="fill:rgb(117,123,178);"/>
            </g>
            <g id="S2" transform="matrix(0.135146,0,0,0.124524,1046.66,412.278)">
                <circle cx="1838.76" cy="135.676" r="14.1" style="fill:rgb(117,123,178);"/>
            </g>
            <g id="S1" transform="matrix(0.135146,0,0,0.124524,1043,278.236)">
                <circle cx="1838.76" cy="135.676" r="14.1" style="fill:rgb(117,123,178);"/>
            </g>
        </g>
        <g id="Background1" serif:id="Background" transform="matrix(1.00293,0,0,1.01717,-4930.96,-327.044)">
            <path d="M6146.06,405.348C6613.86,490.111 6969.07,899.842 6969.07,1391.88C6969.07,1945.23 6519.82,2394.48 5966.47,2394.48C5879.54,2394.48 5795.18,2383.4 5714.7,2362.55C5772.94,2373.11 5832.98,2378.62 5894.29,2378.62C6447.64,2378.62 6896.89,1929.37 6896.89,1376.02C6896.89,909.601 6577.71,517.142 6146.06,405.348Z" style="fill:rgb(25,23,71);"/>
        </g>
        <g transform="matrix(4.01296,0,0,1.60265,-89.0286,-39.089)">
            <g transform="matrix(0.286246,0,0,0.634681,-408.215,197.413)">
                <path d="M3275.83,465.35C3275.83,463.109 3274.24,461.289 3272.28,461.289L2863.66,461.289C2861.7,461.289 2860.11,463.109 2860.11,465.35L2860.11,473.472C2860.11,475.713 2861.7,477.533 2863.66,477.533L3272.28,477.533C3274.24,477.533 3275.83,475.713 3275.83,473.472L3275.83,465.35Z" style="fill:rgb(25,23,71);"/>
            </g>
            <g id="BookEmpty" transform="matrix(0.121962,0,0,0.643512,136.547,56.2099)">
                <path d="M2373.3,460.558C2373.3,457.361 2367.91,454.766 2361.27,454.766L2337.2,454.766C2330.56,454.766 2325.17,457.361 2325.17,460.558L2325.17,670.369C2325.17,673.566 2330.56,676.161 2337.2,676.161L2361.27,676.161C2367.91,676.161 2373.3,673.566 2373.3,670.369L2373.3,460.558Z" style="fill:rgb(25,23,71);"/>
            </g>
            <g id="BookHTML" transform="matrix(0.382136,0,0,0.622695,-296.036,48.238)">
                <g transform="matrix(1,0,0,1,206.49,-47.4858)">
                    <g transform="matrix(0.654015,0,0,1.01925,31.5457,61.3299)">
                        <path d="M2642.44,395.545C2642.44,390.829 2638.61,387.001 2633.89,387.001L2551.26,387.001C2546.54,387.001 2542.72,390.829 2542.72,395.545L2542.72,676.086C2542.72,680.802 2546.54,684.631 2551.26,684.631L2633.89,684.631C2638.61,684.631 2642.44,680.802 2642.44,676.086L2642.44,395.545Z" style="fill:rgb(25,23,71);"/>
                    </g>
                    <g transform="matrix(0.654015,0,0,1.02908,30.0349,56.2699)">
                        <path d="M2636.28,402.247C2636.28,398.295 2633.04,395.086 2629.05,395.086L2545.71,395.086C2541.72,395.086 2538.48,398.295 2538.48,402.247L2538.48,667.459C2538.48,671.412 2541.72,674.62 2545.71,674.62L2629.05,674.62C2633.04,674.62 2636.28,671.412 2636.28,667.459L2636.28,402.247Z" style="fill:rgb(71,67,197);"/>
                    </g>
                </g>
                <g transform="matrix(0.828419,0,0,1.21036,65.467,-186.265)">
                    <path d="M2278.58,547.944C2278.58,547.094 2277.94,546.404 2277.14,546.404L2222.27,546.404C2221.47,546.404 2220.83,547.094 2220.83,547.944L2220.83,551.025C2220.83,551.875 2221.47,552.565 2222.27,552.565L2277.14,552.565C2277.94,552.565 2278.58,551.875 2278.58,551.025L2278.58,547.944Z" style="fill:rgb(44,41,125);"/>
                </g>
                <g transform="matrix(0.828419,0,0,1.21036,65.467,-113.341)">
                    <path d="M2278.58,547.944C2278.58,547.094 2277.94,546.404 2277.14,546.404L2222.27,546.404C2221.47,546.404 2220.83,547.094 2220.83,547.944L2220.83,551.025C2220.83,551.875 2221.47,552.565 2222.27,552.565L2277.14,552.565C2277.94,552.565 2278.58,551.875 2278.58,551.025L2278.58,547.944Z" style="fill:rgb(44,41,125);"/>
                </g>
                <g transform="matrix(0.828419,0,0,1.21036,65.467,25.5847)">
                    <path d="M2278.58,547.944C2278.58,547.094 2277.94,546.404 2277.14,546.404L2222.27,546.404C2221.47,546.404 2220.83,547.094 2220.83,547.944L2220.83,551.025C2220.83,551.875 2221.47,552.565 2222.27,552.565L2277.14,552.565C2277.94,552.565 2278.58,551.875 2278.58,551.025L2278.58,547.944Z" style="fill:rgb(44,41,125);"/>
                </g>
                <g transform="matrix(0.828419,0,0,1.21036,65.467,-46.2327)">
                    <path d="M2278.58,547.944C2278.58,547.094 2277.94,546.404 2277.14,546.404L2222.27,546.404C2221.47,546.404 2220.83,547.094 2220.83,547.944L2220.83,551.025C2220.83,551.875 2221.47,552.565 2222.27,552.565L2277.14,552.565C2277.94,552.565 2278.58,551.875 2278.58,551.025L2278.58,547.944Z" style="fill:rgb(44,41,125);"/>
                </g>
                <g transform="matrix(0.000206869,-1.01925,0.654015,0.000322395,1628.1,3738.4)">
                    <g transform="matrix(64,0,0,64,3005.91,480.179)">
                        <path d="M0.099,-0.041L0.099,-0.608C0.099,-0.619 0.103,-0.629 0.111,-0.637C0.119,-0.645 0.129,-0.649 0.14,-0.649C0.151,-0.649 0.161,-0.645 0.169,-0.637C0.177,-0.629 0.181,-0.619 0.181,-0.608L0.181,-0.366L0.431,-0.366L0.431,-0.608C0.431,-0.619 0.435,-0.629 0.443,-0.637C0.451,-0.645 0.461,-0.649 0.472,-0.649C0.484,-0.649 0.493,-0.645 0.501,-0.637C0.509,-0.629 0.513,-0.619 0.513,-0.607L0.513,-0.041C0.513,-0.03 0.509,-0.02 0.501,-0.012C0.492,-0.004 0.483,-0 0.472,-0C0.46,-0 0.451,-0.004 0.443,-0.012C0.435,-0.02 0.431,-0.03 0.431,-0.041L0.431,-0.284L0.182,-0.284L0.182,-0.041C0.182,-0.03 0.178,-0.02 0.17,-0.012C0.161,-0.004 0.152,-0 0.14,-0C0.129,-0 0.119,-0.004 0.111,-0.012C0.103,-0.02 0.099,-0.03 0.099,-0.041Z" style="fill:rgb(7,139,166);fill-rule:nonzero;"/>
                    </g>
                </g>
                <g transform="matrix(0.000206869,-1.01925,0.654015,0.000322395,1628.1,3670.5)">
                    <g transform="matrix(64,0,0,64,3005.91,480.179)">
                        <path d="M0.1,-0.537L0.1,-0.648L0.514,-0.648L0.514,-0.536C0.514,-0.525 0.51,-0.515 0.502,-0.507C0.494,-0.499 0.484,-0.495 0.473,-0.495C0.462,-0.495 0.452,-0.499 0.444,-0.507C0.435,-0.515 0.431,-0.525 0.431,-0.536L0.431,-0.566L0.348,-0.566L0.348,-0.041C0.348,-0.03 0.344,-0.02 0.336,-0.012C0.328,-0.004 0.318,-0 0.307,-0C0.295,-0 0.285,-0.004 0.277,-0.012C0.269,-0.02 0.265,-0.03 0.265,-0.041L0.265,-0.566L0.182,-0.566L0.182,-0.537C0.182,-0.526 0.178,-0.516 0.17,-0.508C0.162,-0.5 0.153,-0.496 0.141,-0.496C0.13,-0.496 0.12,-0.5 0.112,-0.508C0.104,-0.516 0.1,-0.526 0.1,-0.537Z" style="fill:rgb(7,139,166);fill-rule:nonzero;"/>
                    </g>
                </g>
                <g transform="matrix(0.000206869,-1.01925,0.654015,0.000322395,1628.1,3597.9)">
                    <g transform="matrix(64,0,0,64,3005.91,480.179)">
                        <path d="M0.266,-0.394L0.266,-0.415L0.181,-0.536L0.181,-0.041C0.181,-0.03 0.177,-0.02 0.169,-0.012C0.161,-0.004 0.152,-0 0.14,-0C0.129,-0 0.119,-0.004 0.111,-0.012C0.103,-0.02 0.099,-0.03 0.099,-0.041L0.099,-0.649L0.205,-0.649L0.306,-0.502L0.41,-0.649L0.514,-0.649L0.514,-0.041C0.514,-0.03 0.51,-0.02 0.502,-0.012C0.493,-0.004 0.484,-0 0.472,-0C0.461,-0 0.451,-0.004 0.443,-0.012C0.435,-0.02 0.431,-0.03 0.431,-0.041L0.431,-0.534L0.348,-0.417L0.348,-0.394C0.348,-0.383 0.344,-0.373 0.336,-0.365C0.328,-0.357 0.318,-0.353 0.307,-0.353C0.296,-0.353 0.286,-0.357 0.278,-0.365C0.27,-0.373 0.266,-0.383 0.266,-0.394Z" style="fill:rgb(7,139,166);fill-rule:nonzero;"/>
                    </g>
                </g>
                <g transform="matrix(0.000206869,-1.01925,0.654015,0.000322395,1628.1,3530.63)">
                    <g transform="matrix(64,0,0,64,3005.91,480.179)">
                        <path d="M0.101,-0L0.101,-0.608C0.101,-0.619 0.105,-0.629 0.113,-0.637C0.121,-0.645 0.131,-0.649 0.142,-0.649C0.153,-0.649 0.163,-0.645 0.171,-0.637C0.179,-0.629 0.183,-0.619 0.183,-0.608L0.183,-0.082L0.473,-0.082C0.485,-0.082 0.494,-0.078 0.503,-0.07C0.511,-0.062 0.515,-0.052 0.515,-0.041C0.515,-0.03 0.511,-0.02 0.503,-0.012C0.494,-0.004 0.485,-0 0.473,-0L0.101,-0Z" style="fill:rgb(7,139,166);fill-rule:nonzero;"/>
                    </g>
                </g>
                <g transform="matrix(0.616995,0,0,0.935476,62.5296,156.896)">
                    <path d="M3013.24,585.32C3013.24,582.426 3010.96,580.076 3008.14,580.076L2997.94,580.076C2995.12,580.076 2992.84,582.426 2992.84,585.32L2992.84,602.939C2992.84,605.834 2995.12,608.183 2997.94,608.183L3008.14,608.183C3010.96,608.183 3013.24,605.834 3013.24,602.939L3013.24,585.32Z" style="fill:rgb(250,100,1);"/>
                </g>
            </g>
            <g id="BookEmpty1" serif:id="BookEmpty" transform="matrix(0.275777,0,0,0.634681,-274.301,56.5079)">
                <path d="M2677.68,409.723C2677.68,407.003 2675.68,404.794 2673.21,404.794L2664.28,404.794C2661.82,404.794 2659.82,407.003 2659.82,409.723L2659.82,680.17C2659.82,682.89 2661.82,685.098 2664.28,685.098L2673.21,685.098C2675.68,685.098 2677.68,682.89 2677.68,680.17L2677.68,409.723Z" style="fill:rgb(25,23,71);"/>
            </g>
            <g id="BookEmpty2" serif:id="BookEmpty" transform="matrix(0.134574,0,0,0.524193,95.6919,130.589)">
                <path d="M2785.8,381.985C2785.8,379.103 2782.21,376.764 2777.79,376.764L2761.77,376.764C2757.35,376.764 2753.76,379.103 2753.76,381.985L2753.76,682.957C2753.76,685.839 2757.35,688.179 2761.77,688.179L2777.79,688.179C2782.21,688.179 2785.8,685.839 2785.8,682.957L2785.8,381.985Z" style="fill:rgb(4,136,154);"/>
            </g>
            <g id="BookCSS" transform="matrix(0.382136,0,0,0.622695,-293.367,181.967)">
                <g transform="matrix(0.654015,0,0,1.01925,230.803,-197.318)">
                    <path d="M2794.42,433.333C2794.42,429.27 2791.12,425.971 2787.06,425.971L2721.7,425.971C2717.63,425.971 2714.34,429.27 2714.34,433.333L2714.34,673.655C2714.34,677.718 2717.63,681.017 2721.7,681.017L2787.06,681.017C2791.12,681.017 2794.42,677.718 2794.42,673.655L2794.42,433.333Z" style="fill:rgb(25,23,71);"/>
                </g>
                <g transform="matrix(4.00469e-17,-1.01925,0.654015,6.2411e-17,1953.56,3603.78)">
                    <g transform="matrix(52.8045,0,0,52.8045,3060.32,137.312)">
                        <path d="M0.326,-0.082L0.474,-0.082C0.485,-0.082 0.495,-0.078 0.504,-0.07C0.512,-0.062 0.516,-0.052 0.516,-0.041C0.516,-0.03 0.512,-0.02 0.504,-0.012C0.495,-0.004 0.486,-0 0.474,-0L0.321,-0C0.301,-0 0.281,-0.006 0.26,-0.019C0.239,-0.031 0.225,-0.045 0.217,-0.06L0.122,-0.243C0.109,-0.27 0.103,-0.297 0.103,-0.324C0.103,-0.355 0.109,-0.381 0.121,-0.404L0.217,-0.585C0.226,-0.602 0.24,-0.617 0.259,-0.63C0.278,-0.642 0.297,-0.649 0.315,-0.649L0.477,-0.649C0.488,-0.649 0.498,-0.645 0.506,-0.637C0.514,-0.629 0.518,-0.619 0.518,-0.608C0.518,-0.597 0.514,-0.587 0.506,-0.578C0.498,-0.57 0.488,-0.566 0.477,-0.566L0.321,-0.566C0.308,-0.566 0.297,-0.558 0.289,-0.543L0.198,-0.373C0.191,-0.36 0.187,-0.344 0.188,-0.326C0.187,-0.306 0.191,-0.29 0.199,-0.275L0.286,-0.108C0.294,-0.091 0.307,-0.082 0.326,-0.082Z" style="fill:rgb(7,139,166);fill-rule:nonzero;"/>
                    </g>
                    <g transform="matrix(52.8045,0,0,52.8045,3092.22,137.312)">
                        <path d="M0.193,-0.649L0.407,-0.649C0.433,-0.649 0.458,-0.638 0.481,-0.616C0.504,-0.594 0.516,-0.567 0.516,-0.536C0.516,-0.524 0.512,-0.514 0.504,-0.506C0.495,-0.498 0.486,-0.494 0.476,-0.494C0.462,-0.494 0.452,-0.497 0.447,-0.504C0.442,-0.51 0.437,-0.522 0.432,-0.539C0.428,-0.556 0.417,-0.565 0.401,-0.565L0.198,-0.565C0.188,-0.565 0.183,-0.562 0.183,-0.555C0.183,-0.551 0.185,-0.547 0.189,-0.542L0.494,-0.153C0.509,-0.134 0.516,-0.114 0.516,-0.092C0.516,-0.068 0.507,-0.046 0.49,-0.028C0.472,-0.009 0.452,-0 0.43,-0L0.209,-0C0.18,-0 0.154,-0.011 0.133,-0.033C0.111,-0.056 0.1,-0.08 0.1,-0.107C0.1,-0.138 0.114,-0.153 0.143,-0.153C0.154,-0.153 0.164,-0.149 0.171,-0.141C0.179,-0.133 0.183,-0.124 0.183,-0.113C0.183,-0.104 0.186,-0.097 0.192,-0.091C0.198,-0.085 0.206,-0.082 0.215,-0.082L0.419,-0.082C0.428,-0.082 0.432,-0.086 0.432,-0.092C0.432,-0.096 0.43,-0.1 0.426,-0.105L0.122,-0.494C0.107,-0.513 0.1,-0.533 0.1,-0.555C0.1,-0.58 0.109,-0.602 0.127,-0.621C0.146,-0.64 0.168,-0.649 0.193,-0.649Z" style="fill:rgb(7,139,166);fill-rule:nonzero;"/>
                    </g>
                    <g transform="matrix(52.8045,0,0,52.8045,3124.11,137.312)">
                        <path d="M0.193,-0.649L0.407,-0.649C0.433,-0.649 0.458,-0.638 0.481,-0.616C0.504,-0.594 0.516,-0.567 0.516,-0.536C0.516,-0.524 0.512,-0.514 0.504,-0.506C0.495,-0.498 0.486,-0.494 0.476,-0.494C0.462,-0.494 0.452,-0.497 0.447,-0.504C0.442,-0.51 0.437,-0.522 0.432,-0.539C0.428,-0.556 0.417,-0.565 0.401,-0.565L0.198,-0.565C0.188,-0.565 0.183,-0.562 0.183,-0.555C0.183,-0.551 0.185,-0.547 0.189,-0.542L0.494,-0.153C0.509,-0.134 0.516,-0.114 0.516,-0.092C0.516,-0.068 0.507,-0.046 0.49,-0.028C0.472,-0.009 0.452,-0 0.43,-0L0.209,-0C0.18,-0 0.154,-0.011 0.133,-0.033C0.111,-0.056 0.1,-0.08 0.1,-0.107C0.1,-0.138 0.114,-0.153 0.143,-0.153C0.154,-0.153 0.164,-0.149 0.171,-0.141C0.179,-0.133 0.183,-0.124 0.183,-0.113C0.183,-0.104 0.186,-0.097 0.192,-0.091C0.198,-0.085 0.206,-0.082 0.215,-0.082L0.419,-0.082C0.428,-0.082 0.432,-0.086 0.432,-0.092C0.432,-0.096 0.43,-0.1 0.426,-0.105L0.122,-0.494C0.107,-0.513 0.1,-0.533 0.1,-0.555C0.1,-0.58 0.109,-0.602 0.127,-0.621C0.146,-0.64 0.168,-0.649 0.193,-0.649Z" style="fill:rgb(7,139,166);fill-rule:nonzero;"/>
                    </g>
                </g>
            </g>
            <g id="BookJS">
                <g transform="matrix(0.249923,0,0,0.634681,-205.092,57.3388)">
                    <path d="M2864.65,453.227C2864.65,449.744 2861.83,446.917 2858.34,446.917L2818.6,446.917C2815.12,446.917 2812.29,449.744 2812.29,453.227L2812.29,677.479C2812.29,680.962 2815.12,683.789 2818.6,683.789L2858.34,683.789C2861.83,683.789 2864.65,680.962 2864.65,677.479L2864.65,453.227Z" style="fill:rgb(25,23,71);"/>
                </g>
                <g transform="matrix(1.53034e-17,-0.634681,0.249923,3.8863e-17,482.393,2409.21)">
                    <g transform="matrix(30,0,0,30,3031.37,97.5764)">
                        <path d="M0.141,-0.124L0.141,-0.254C0.141,-0.265 0.145,-0.275 0.153,-0.283C0.161,-0.291 0.171,-0.295 0.182,-0.295C0.194,-0.295 0.203,-0.291 0.211,-0.283C0.219,-0.275 0.223,-0.265 0.223,-0.254L0.223,-0.123C0.223,-0.112 0.227,-0.103 0.235,-0.095C0.243,-0.087 0.253,-0.083 0.265,-0.083L0.348,-0.083C0.36,-0.083 0.369,-0.087 0.378,-0.095C0.386,-0.103 0.39,-0.113 0.39,-0.124L0.39,-0.608C0.39,-0.619 0.394,-0.629 0.402,-0.637C0.41,-0.645 0.419,-0.649 0.43,-0.649C0.441,-0.649 0.451,-0.645 0.459,-0.636C0.468,-0.627 0.472,-0.617 0.472,-0.606L0.472,-0.124C0.472,-0.09 0.46,-0.06 0.435,-0.036C0.41,-0.012 0.381,-0 0.348,-0L0.265,-0C0.231,-0 0.202,-0.012 0.177,-0.037C0.153,-0.061 0.141,-0.09 0.141,-0.124Z" style="fill:rgb(7,139,166);fill-rule:nonzero;"/>
                    </g>
                    <g transform="matrix(30,0,0,30,3049.49,97.5764)">
                        <path d="M0.223,-0.296L0.384,-0.296C0.393,-0.296 0.406,-0.294 0.422,-0.29L0.421,-0.348C0.421,-0.36 0.417,-0.369 0.409,-0.377C0.401,-0.385 0.392,-0.389 0.38,-0.389L0.224,-0.389C0.213,-0.389 0.203,-0.393 0.195,-0.401C0.187,-0.41 0.183,-0.419 0.183,-0.43C0.183,-0.442 0.187,-0.451 0.195,-0.459C0.203,-0.467 0.213,-0.471 0.224,-0.471L0.38,-0.471C0.414,-0.471 0.443,-0.459 0.467,-0.436C0.491,-0.412 0.503,-0.383 0.504,-0.348L0.515,-0.041C0.515,-0.03 0.511,-0.02 0.502,-0.012C0.494,-0.004 0.485,-0 0.474,-0C0.462,-0 0.452,-0.004 0.444,-0.012C0.436,-0.02 0.432,-0.03 0.432,-0.041L0.362,-0L0.223,-0C0.189,-0 0.159,-0.012 0.135,-0.036C0.111,-0.06 0.099,-0.09 0.099,-0.124L0.099,-0.172C0.099,-0.206 0.111,-0.235 0.136,-0.26C0.16,-0.284 0.189,-0.296 0.223,-0.296ZM0.428,-0.136L0.426,-0.171C0.426,-0.183 0.422,-0.192 0.414,-0.2C0.406,-0.208 0.396,-0.212 0.385,-0.212L0.223,-0.212C0.212,-0.212 0.202,-0.208 0.194,-0.2C0.186,-0.192 0.182,-0.182 0.182,-0.171L0.182,-0.125C0.182,-0.114 0.186,-0.104 0.194,-0.096C0.202,-0.088 0.212,-0.084 0.223,-0.084L0.339,-0.084L0.428,-0.136Z" style="fill:rgb(7,139,166);fill-rule:nonzero;"/>
                    </g>
                    <g transform="matrix(30,0,0,30,3067.61,97.5764)">
                        <path d="M0.515,-0.43L0.515,-0.352L0.372,-0.029C0.363,-0.01 0.351,-0 0.336,-0L0.283,-0C0.264,-0 0.25,-0.01 0.241,-0.03L0.1,-0.351L0.1,-0.43C0.1,-0.442 0.104,-0.451 0.112,-0.459C0.12,-0.467 0.13,-0.471 0.141,-0.471C0.153,-0.471 0.162,-0.467 0.17,-0.459C0.178,-0.451 0.182,-0.442 0.182,-0.43L0.182,-0.367L0.307,-0.086L0.432,-0.368L0.432,-0.43C0.432,-0.442 0.436,-0.451 0.444,-0.459C0.452,-0.467 0.462,-0.471 0.474,-0.471C0.485,-0.471 0.495,-0.467 0.503,-0.459C0.511,-0.451 0.515,-0.442 0.515,-0.43Z" style="fill:rgb(7,139,166);fill-rule:nonzero;"/>
                    </g>
                    <g transform="matrix(30,0,0,30,3085.73,97.5764)">
                        <path d="M0.223,-0.296L0.384,-0.296C0.393,-0.296 0.406,-0.294 0.422,-0.29L0.421,-0.348C0.421,-0.36 0.417,-0.369 0.409,-0.377C0.401,-0.385 0.392,-0.389 0.38,-0.389L0.224,-0.389C0.213,-0.389 0.203,-0.393 0.195,-0.401C0.187,-0.41 0.183,-0.419 0.183,-0.43C0.183,-0.442 0.187,-0.451 0.195,-0.459C0.203,-0.467 0.213,-0.471 0.224,-0.471L0.38,-0.471C0.414,-0.471 0.443,-0.459 0.467,-0.436C0.491,-0.412 0.503,-0.383 0.504,-0.348L0.515,-0.041C0.515,-0.03 0.511,-0.02 0.502,-0.012C0.494,-0.004 0.485,-0 0.474,-0C0.462,-0 0.452,-0.004 0.444,-0.012C0.436,-0.02 0.432,-0.03 0.432,-0.041L0.362,-0L0.223,-0C0.189,-0 0.159,-0.012 0.135,-0.036C0.111,-0.06 0.099,-0.09 0.099,-0.124L0.099,-0.172C0.099,-0.206 0.111,-0.235 0.136,-0.26C0.16,-0.284 0.189,-0.296 0.223,-0.296ZM0.428,-0.136L0.426,-0.171C0.426,-0.183 0.422,-0.192 0.414,-0.2C0.406,-0.208 0.396,-0.212 0.385,-0.212L0.223,-0.212C0.212,-0.212 0.202,-0.208 0.194,-0.2C0.186,-0.192 0.182,-0.182 0.182,-0.171L0.182,-0.125C0.182,-0.114 0.186,-0.104 0.194,-0.096C0.202,-0.088 0.212,-0.084 0.223,-0.084L0.339,-0.084L0.428,-0.136Z" style="fill:rgb(7,139,166);fill-rule:nonzero;"/>
                    </g>
                    <g transform="matrix(30,0,0,30,3103.85,97.5764)">
                        <path d="M0.216,-0.471L0.404,-0.471C0.433,-0.471 0.459,-0.462 0.481,-0.445C0.504,-0.428 0.515,-0.411 0.515,-0.394C0.515,-0.382 0.511,-0.373 0.503,-0.365C0.494,-0.358 0.485,-0.354 0.475,-0.354C0.462,-0.354 0.45,-0.36 0.439,-0.372C0.429,-0.383 0.417,-0.389 0.406,-0.389L0.22,-0.389C0.202,-0.389 0.193,-0.382 0.193,-0.366C0.193,-0.356 0.199,-0.348 0.211,-0.342L0.429,-0.245C0.451,-0.235 0.469,-0.22 0.484,-0.198C0.498,-0.176 0.505,-0.152 0.505,-0.126C0.505,-0.091 0.492,-0.061 0.468,-0.037C0.443,-0.012 0.414,-0 0.383,-0L0.217,-0C0.188,-0 0.162,-0.009 0.137,-0.026C0.112,-0.043 0.1,-0.06 0.1,-0.076C0.1,-0.087 0.104,-0.096 0.112,-0.105C0.12,-0.113 0.13,-0.117 0.143,-0.117C0.153,-0.117 0.165,-0.111 0.177,-0.1C0.188,-0.088 0.206,-0.082 0.228,-0.082L0.381,-0.082C0.393,-0.082 0.403,-0.087 0.411,-0.096C0.419,-0.105 0.423,-0.116 0.423,-0.128C0.423,-0.146 0.414,-0.16 0.396,-0.168L0.176,-0.267C0.155,-0.277 0.138,-0.29 0.127,-0.308C0.116,-0.326 0.11,-0.344 0.11,-0.363C0.11,-0.392 0.12,-0.417 0.14,-0.439C0.161,-0.46 0.186,-0.471 0.216,-0.471Z" style="fill:rgb(7,139,166);fill-rule:nonzero;"/>
                    </g>
                    <g transform="matrix(30,0,0,30,3121.97,97.5764)">
                        <path d="M0.474,-0L0.299,-0C0.268,-0 0.242,-0.009 0.22,-0.028L0.14,-0.097C0.115,-0.118 0.102,-0.147 0.102,-0.183L0.102,-0.29C0.101,-0.325 0.115,-0.355 0.145,-0.381L0.217,-0.443C0.24,-0.462 0.265,-0.471 0.291,-0.471L0.475,-0.471C0.486,-0.471 0.496,-0.467 0.504,-0.459C0.512,-0.451 0.516,-0.442 0.516,-0.43C0.516,-0.418 0.512,-0.409 0.504,-0.401C0.496,-0.393 0.486,-0.389 0.475,-0.389L0.299,-0.389C0.288,-0.389 0.277,-0.385 0.267,-0.376L0.201,-0.32C0.19,-0.311 0.185,-0.299 0.185,-0.283L0.185,-0.183C0.185,-0.172 0.189,-0.163 0.198,-0.156L0.27,-0.094C0.279,-0.086 0.291,-0.082 0.306,-0.082L0.474,-0.082C0.485,-0.082 0.495,-0.078 0.503,-0.07C0.511,-0.062 0.515,-0.052 0.515,-0.041C0.515,-0.03 0.511,-0.02 0.503,-0.012C0.495,-0.004 0.486,-0 0.474,-0Z" style="fill:rgb(7,139,166);fill-rule:nonzero;"/>
                    </g>
                    <g transform="matrix(30,0,0,30,3140.09,97.5764)">
                        <path d="M0.101,-0.041L0.101,-0.43C0.101,-0.442 0.105,-0.451 0.113,-0.46C0.121,-0.468 0.131,-0.472 0.142,-0.472C0.153,-0.472 0.163,-0.468 0.171,-0.46C0.179,-0.452 0.183,-0.442 0.183,-0.43L0.183,-0.379L0.25,-0.436C0.278,-0.459 0.305,-0.471 0.331,-0.471L0.391,-0.471C0.425,-0.471 0.454,-0.459 0.478,-0.435C0.502,-0.411 0.514,-0.382 0.514,-0.348L0.514,-0.326C0.514,-0.314 0.51,-0.305 0.502,-0.296C0.494,-0.288 0.485,-0.284 0.473,-0.284C0.462,-0.284 0.452,-0.288 0.444,-0.296C0.436,-0.304 0.432,-0.314 0.432,-0.325L0.432,-0.348C0.432,-0.36 0.428,-0.369 0.42,-0.377C0.412,-0.385 0.403,-0.389 0.391,-0.389L0.338,-0.389C0.326,-0.389 0.314,-0.383 0.3,-0.371L0.183,-0.27L0.183,-0.041C0.183,-0.03 0.179,-0.02 0.171,-0.012C0.163,-0.004 0.153,-0 0.142,-0C0.131,-0 0.121,-0.004 0.113,-0.012C0.105,-0.02 0.101,-0.03 0.101,-0.041Z" style="fill:rgb(7,139,166);fill-rule:nonzero;"/>
                    </g>
                    <g transform="matrix(30,0,0,30,3158.21,97.5764)">
                        <path d="M0.265,-0.685L0.308,-0.685C0.319,-0.685 0.329,-0.681 0.337,-0.673C0.345,-0.665 0.349,-0.655 0.349,-0.644L0.349,-0.609C0.349,-0.597 0.345,-0.588 0.337,-0.579C0.329,-0.571 0.319,-0.567 0.308,-0.567L0.264,-0.567C0.252,-0.567 0.243,-0.571 0.235,-0.58C0.227,-0.588 0.223,-0.597 0.223,-0.608L0.224,-0.644C0.224,-0.655 0.228,-0.665 0.236,-0.673C0.244,-0.681 0.254,-0.685 0.265,-0.685ZM0.432,-0.001L0.182,-0.001C0.171,-0.001 0.161,-0.005 0.153,-0.013C0.145,-0.021 0.141,-0.031 0.141,-0.042C0.141,-0.053 0.145,-0.063 0.153,-0.071C0.161,-0.079 0.171,-0.083 0.182,-0.083L0.266,-0.083L0.266,-0.389L0.183,-0.389C0.172,-0.389 0.162,-0.393 0.154,-0.401C0.146,-0.41 0.142,-0.419 0.142,-0.43C0.142,-0.442 0.146,-0.451 0.154,-0.46C0.162,-0.468 0.172,-0.472 0.183,-0.472L0.308,-0.472C0.319,-0.472 0.329,-0.468 0.337,-0.46C0.345,-0.451 0.349,-0.442 0.349,-0.43L0.349,-0.083L0.431,-0.083C0.443,-0.083 0.452,-0.079 0.461,-0.071C0.469,-0.063 0.473,-0.053 0.473,-0.042C0.473,-0.031 0.469,-0.021 0.461,-0.013C0.453,-0.005 0.443,-0.001 0.432,-0.001Z" style="fill:rgb(7,139,166);fill-rule:nonzero;"/>
                    </g>
                    <g transform="matrix(30,0,0,30,3176.33,97.5764)">
                        <path d="M0.184,-0.047L0.184,0.135C0.184,0.146 0.18,0.156 0.172,0.165C0.164,0.173 0.154,0.177 0.143,0.177C0.132,0.177 0.122,0.173 0.114,0.165C0.105,0.156 0.101,0.146 0.101,0.135L0.101,-0.45C0.101,-0.461 0.105,-0.471 0.113,-0.479C0.121,-0.487 0.131,-0.491 0.143,-0.491C0.154,-0.491 0.164,-0.487 0.172,-0.479C0.18,-0.471 0.184,-0.461 0.184,-0.45L0.184,-0.424C0.224,-0.468 0.263,-0.49 0.302,-0.49L0.321,-0.49C0.35,-0.49 0.376,-0.479 0.401,-0.458L0.469,-0.399C0.499,-0.373 0.514,-0.34 0.514,-0.3L0.514,-0.172C0.514,-0.132 0.498,-0.097 0.466,-0.07L0.399,-0.012C0.377,0.008 0.349,0.018 0.315,0.018L0.297,0.018C0.265,0.018 0.238,0.007 0.216,-0.015L0.184,-0.047ZM0.3,-0.065L0.321,-0.065C0.331,-0.065 0.342,-0.07 0.353,-0.08L0.417,-0.136C0.428,-0.145 0.433,-0.156 0.433,-0.171L0.433,-0.303C0.433,-0.316 0.427,-0.328 0.415,-0.338L0.346,-0.397C0.338,-0.404 0.33,-0.407 0.321,-0.407L0.297,-0.407C0.288,-0.407 0.276,-0.4 0.261,-0.385L0.2,-0.324C0.189,-0.313 0.184,-0.301 0.184,-0.288L0.184,-0.183C0.184,-0.17 0.19,-0.158 0.202,-0.146L0.261,-0.087C0.276,-0.072 0.289,-0.065 0.3,-0.065Z" style="fill:rgb(7,139,166);fill-rule:nonzero;"/>
                    </g>
                    <g transform="matrix(30,0,0,30,3194.45,97.5764)">
                        <path d="M0.389,-0L0.307,-0C0.273,-0 0.244,-0.012 0.22,-0.036C0.195,-0.06 0.183,-0.089 0.183,-0.123L0.183,-0.389L0.141,-0.389C0.13,-0.389 0.12,-0.393 0.112,-0.401C0.104,-0.409 0.1,-0.418 0.1,-0.43C0.1,-0.442 0.104,-0.451 0.112,-0.459C0.12,-0.467 0.13,-0.471 0.141,-0.471L0.184,-0.471L0.184,-0.572C0.184,-0.583 0.188,-0.593 0.196,-0.601C0.204,-0.609 0.214,-0.613 0.225,-0.613C0.236,-0.613 0.245,-0.609 0.254,-0.601C0.262,-0.592 0.266,-0.583 0.266,-0.572L0.266,-0.471L0.431,-0.471C0.442,-0.471 0.452,-0.467 0.46,-0.459C0.468,-0.451 0.472,-0.441 0.472,-0.43C0.472,-0.419 0.468,-0.409 0.46,-0.401C0.452,-0.393 0.442,-0.389 0.431,-0.389L0.265,-0.389L0.265,-0.123C0.265,-0.112 0.269,-0.102 0.278,-0.094C0.286,-0.086 0.296,-0.082 0.307,-0.082L0.387,-0.082C0.409,-0.082 0.424,-0.094 0.431,-0.117C0.438,-0.141 0.452,-0.153 0.472,-0.153C0.484,-0.153 0.494,-0.149 0.502,-0.141C0.509,-0.133 0.513,-0.123 0.513,-0.111C0.513,-0.086 0.502,-0.061 0.478,-0.037C0.455,-0.012 0.425,-0 0.389,-0Z" style="fill:rgb(7,139,166);fill-rule:nonzero;"/>
                    </g>
                </g>
            </g>
        </g>
        <g transform="matrix(4.01296,0,0,1.60265,-89.4559,-71.6133)">
            <g transform="matrix(0.284896,0,0,0.634681,-384.576,396.767)">
                <path d="M3275.83,465.35C3275.83,463.109 3274.23,461.289 3272.27,461.289L2863.68,461.289C2861.71,461.289 2860.11,463.109 2860.11,465.35L2860.11,473.472C2860.11,475.713 2861.71,477.533 2863.68,477.533L3272.27,477.533C3274.23,477.533 3275.83,475.713 3275.83,473.472L3275.83,465.35Z" style="fill:rgb(25,23,71);"/>
            </g>
            <g id="drone-icon.svg" transform="matrix(0.709038,0,0,1.80061,465.841,637.095)">
                <g transform="matrix(1,0,0,1,-61.44,-29.905)">
                    <clipPath id="_clip3">
                        <rect x="0" y="0" width="122.88" height="59.81"/>
                    </clipPath>
                    <g clip-path="url(#_clip3)">
                        <g>
                            <path d="M20.72,8.03L20.72,4.92L3.79,6.54C0.53,6.9 -0.14,5.78 0.02,4.59C0.43,1.64 2,2.33 4.25,2.45L20.71,3.28L20.71,1.16C20.71,0.52 21.23,0 21.87,0L22.85,0C23.49,0 24.01,0.52 24.01,1.16L24.01,3.27L40.52,1.8C42.77,1.68 44.34,0.99 44.75,3.95C44.91,5.13 44.24,6.26 40.98,5.89L24.03,4.92L24.03,8.03L25.26,8.03C26.14,8.03 26.86,8.75 26.86,9.63L26.86,15.4L96.01,15.4L96.01,9.68C96.01,8.78 96.75,8.03 97.66,8.03L98.83,8.03L98.83,4.92L81.9,6.54C78.63,6.91 77.97,5.78 78.13,4.6C78.54,1.64 80.11,2.34 82.36,2.45L98.82,3.28L98.82,1.16C98.82,0.52 99.34,0 99.98,0L100.96,0C101.6,0 102.12,0.52 102.12,1.16L102.12,3.27L118.61,1.8C120.86,1.68 122.43,0.99 122.84,3.95C123,5.13 122.33,6.26 119.07,5.89L102.12,4.92L102.12,8.03L103.35,8.03C104.23,8.03 104.95,8.75 104.95,9.63L104.95,15.4L118.8,15.4C120.47,15.4 121.84,16.77 121.84,18.44C121.84,20.11 120.47,21.48 118.8,21.48L93.85,21.48C91.53,24.77 84.91,26.04 75.19,25.86C78.51,28.96 81.71,32.46 84.73,36.63C88.74,42.02 92.11,47.7 93.99,54.01C94.64,61.29 87.3,60.06 84.92,58.64C81.43,58.2 81.44,52.6 81.16,47.42C80.91,42.85 80.42,38.43 76.92,35.07C75.19,33.41 72.78,31.99 69.53,30.87C68.76,31.61 67.83,32.28 66.76,32.89C61.76,35.72 57.1,36.5 53.21,30.4C50.94,31.07 48.99,32.09 47.34,33.43C40.65,38.83 40.9,46.35 40.56,54.58C39.74,60.3 27.21,63.04 28.23,53.67C28.43,51.81 29.28,50.13 30.46,48.54C35.08,39.56 40.44,31.76 47.05,25.99C38.57,26.17 32,24.93 28.35,21.49L3.13,21.49C1.46,21.49 0.09,20.12 0.09,18.45C0.09,16.78 1.46,15.41 3.13,15.41L17.9,15.41L17.9,9.68C17.9,8.78 18.64,8.03 19.55,8.03L20.72,8.03ZM58.44,23.91L63.5,23.91C64.25,23.91 64.86,24.52 64.86,25.27C64.86,26.02 64.25,26.63 63.5,26.63L58.44,26.63C57.7,26.63 57.08,26.02 57.08,25.27C57.09,24.52 57.7,23.91 58.44,23.91Z" style="fill:rgb(25,23,71);"/>
                        </g>
                    </g>
                </g>
            </g>
        </g>
        <g transform="matrix(3.51951,0,0,1.40558,-1168.77,13.7638)">
            <g transform="matrix(0.310182,0,0,0.634681,-99.631,667.993)">
                <path d="M3275.83,465.35C3275.83,463.109 3274.36,461.289 3272.56,461.289L2863.39,461.289C2861.58,461.289 2860.11,463.109 2860.11,465.35L2860.11,473.472C2860.11,475.713 2861.58,477.533 2863.39,477.533L3272.56,477.533C3274.36,477.533 3275.83,475.713 3275.83,473.472L3275.83,465.35Z" style="fill:rgb(25,23,71);"/>
            </g>
            <g id="BookBlazor" transform="matrix(0.249923,0,0,0.634681,173.767,47.1377)">
                <path d="M2582.71,1208.89C2582.71,1203.38 2578.24,1198.9 2572.72,1198.9L2496.6,1198.9C2491.08,1198.9 2486.61,1203.38 2486.61,1208.89L2486.61,1431.02C2486.61,1436.53 2491.08,1441.01 2496.6,1441.01L2572.72,1441.01C2578.24,1441.01 2582.71,1436.53 2582.71,1431.02L2582.71,1208.89Z" style="fill:rgb(25,23,71);"/>
                <clipPath id="_clip4">
                    <path d="M2582.71,1208.89C2582.71,1203.38 2578.24,1198.9 2572.72,1198.9L2496.6,1198.9C2491.08,1198.9 2486.61,1203.38 2486.61,1208.89L2486.61,1431.02C2486.61,1436.53 2491.08,1441.01 2496.6,1441.01L2572.72,1441.01C2578.24,1441.01 2582.71,1436.53 2582.71,1431.02L2582.71,1208.89Z"/>
                </clipPath>
                <g clip-path="url(#_clip4)">
                    <g transform="matrix(2.51828e-17,-0.411266,0.411266,2.51828e-17,1989.64,2309.87)">
                        <g transform="matrix(114.135,0,0,114.135,2145.11,1357.32)">
                            <path d="M0.514,-0.201L0.514,-0.165C0.514,-0.12 0.498,-0.081 0.466,-0.049C0.434,-0.016 0.395,-0 0.35,-0L0.099,-0L0.099,-0.649L0.35,-0.649C0.395,-0.649 0.434,-0.633 0.466,-0.601C0.498,-0.568 0.514,-0.529 0.514,-0.484L0.514,-0.449C0.514,-0.401 0.495,-0.359 0.458,-0.325C0.495,-0.29 0.514,-0.249 0.514,-0.201ZM0.43,-0.45L0.43,-0.484C0.43,-0.507 0.422,-0.526 0.406,-0.542C0.39,-0.559 0.371,-0.567 0.348,-0.567L0.181,-0.567L0.181,-0.368L0.348,-0.368C0.37,-0.368 0.389,-0.376 0.406,-0.392C0.422,-0.408 0.43,-0.428 0.43,-0.45ZM0.43,-0.165L0.43,-0.199C0.43,-0.222 0.422,-0.242 0.406,-0.258C0.39,-0.274 0.371,-0.282 0.348,-0.282L0.182,-0.282L0.182,-0.083L0.348,-0.083C0.37,-0.083 0.389,-0.091 0.406,-0.107C0.422,-0.123 0.43,-0.143 0.43,-0.165Z" style="fill:rgb(7,139,166);fill-rule:nonzero;"/>
                        </g>
                        <g transform="matrix(114.135,0,0,114.135,2214.05,1357.32)">
                            <path d="M0.432,-0L0.184,-0C0.173,-0 0.163,-0.004 0.155,-0.012C0.147,-0.021 0.143,-0.031 0.143,-0.042C0.143,-0.053 0.147,-0.063 0.155,-0.071C0.163,-0.079 0.173,-0.083 0.184,-0.083L0.266,-0.083L0.266,-0.567L0.183,-0.567C0.172,-0.567 0.162,-0.571 0.154,-0.579C0.146,-0.587 0.142,-0.597 0.142,-0.608C0.142,-0.619 0.146,-0.629 0.154,-0.637C0.162,-0.645 0.172,-0.649 0.183,-0.649L0.308,-0.649C0.319,-0.649 0.329,-0.645 0.337,-0.637C0.345,-0.629 0.349,-0.619 0.349,-0.608L0.349,-0.083L0.432,-0.083C0.443,-0.083 0.453,-0.079 0.461,-0.071C0.469,-0.063 0.473,-0.053 0.473,-0.042C0.473,-0.031 0.469,-0.021 0.461,-0.012C0.453,-0.004 0.444,-0 0.432,-0Z" style="fill:rgb(7,139,166);fill-rule:nonzero;"/>
                        </g>
                        <g transform="matrix(114.135,0,0,114.135,2282.99,1357.32)">
                            <path d="M0.223,-0.296L0.384,-0.296C0.393,-0.296 0.406,-0.294 0.422,-0.29L0.421,-0.348C0.421,-0.36 0.417,-0.369 0.409,-0.377C0.401,-0.385 0.392,-0.389 0.38,-0.389L0.224,-0.389C0.213,-0.389 0.203,-0.393 0.195,-0.401C0.187,-0.41 0.183,-0.419 0.183,-0.43C0.183,-0.442 0.187,-0.451 0.195,-0.459C0.203,-0.467 0.213,-0.471 0.224,-0.471L0.38,-0.471C0.414,-0.471 0.443,-0.459 0.467,-0.436C0.491,-0.412 0.503,-0.383 0.504,-0.348L0.515,-0.041C0.515,-0.03 0.511,-0.02 0.502,-0.012C0.494,-0.004 0.485,-0 0.474,-0C0.462,-0 0.452,-0.004 0.444,-0.012C0.436,-0.02 0.432,-0.03 0.432,-0.041L0.362,-0L0.223,-0C0.189,-0 0.159,-0.012 0.135,-0.036C0.111,-0.06 0.099,-0.09 0.099,-0.124L0.099,-0.172C0.099,-0.206 0.111,-0.235 0.136,-0.26C0.16,-0.284 0.189,-0.296 0.223,-0.296ZM0.428,-0.136L0.426,-0.171C0.426,-0.183 0.422,-0.192 0.414,-0.2C0.406,-0.208 0.396,-0.212 0.385,-0.212L0.223,-0.212C0.212,-0.212 0.202,-0.208 0.194,-0.2C0.186,-0.192 0.182,-0.182 0.182,-0.171L0.182,-0.125C0.182,-0.114 0.186,-0.104 0.194,-0.096C0.202,-0.088 0.212,-0.084 0.223,-0.084L0.339,-0.084L0.428,-0.136Z" style="fill:rgb(7,139,166);fill-rule:nonzero;"/>
                        </g>
                        <g transform="matrix(114.135,0,0,114.135,2351.92,1357.32)">
                            <path d="M0.515,-0.43L0.515,-0.397C0.515,-0.384 0.51,-0.373 0.501,-0.364L0.21,-0.082L0.473,-0.082C0.485,-0.082 0.494,-0.078 0.502,-0.07C0.51,-0.062 0.514,-0.052 0.514,-0.041C0.514,-0.03 0.51,-0.02 0.502,-0.012C0.494,-0.004 0.485,-0 0.473,-0L0.143,-0C0.131,-0 0.121,-0.004 0.113,-0.012C0.105,-0.02 0.101,-0.03 0.101,-0.041L0.101,-0.076C0.101,-0.088 0.108,-0.101 0.123,-0.115L0.408,-0.389L0.162,-0.389C0.151,-0.389 0.141,-0.393 0.133,-0.401C0.125,-0.41 0.121,-0.419 0.121,-0.431C0.121,-0.442 0.125,-0.451 0.133,-0.46C0.141,-0.468 0.151,-0.472 0.162,-0.472L0.474,-0.472C0.486,-0.472 0.495,-0.468 0.503,-0.46C0.511,-0.451 0.515,-0.442 0.515,-0.43Z" style="fill:rgb(7,139,166);fill-rule:nonzero;"/>
                        </g>
                        <g transform="matrix(114.135,0,0,114.135,2420.86,1357.32)">
                            <path d="M0.514,-0.323L0.514,-0.15C0.514,-0.113 0.497,-0.079 0.462,-0.048C0.427,-0.017 0.392,-0.001 0.355,-0.001L0.259,-0.001C0.221,-0.001 0.186,-0.017 0.151,-0.049C0.117,-0.08 0.1,-0.114 0.1,-0.15L0.1,-0.323C0.1,-0.359 0.117,-0.393 0.15,-0.425C0.184,-0.456 0.22,-0.472 0.259,-0.472L0.355,-0.472C0.392,-0.473 0.427,-0.458 0.462,-0.426C0.497,-0.395 0.514,-0.361 0.514,-0.323ZM0.183,-0.32L0.183,-0.154C0.183,-0.139 0.188,-0.127 0.199,-0.118L0.23,-0.092C0.237,-0.086 0.246,-0.083 0.259,-0.083L0.354,-0.083C0.368,-0.083 0.381,-0.088 0.392,-0.098L0.417,-0.12C0.427,-0.128 0.432,-0.139 0.432,-0.153L0.432,-0.319C0.432,-0.335 0.427,-0.347 0.417,-0.355L0.388,-0.378C0.378,-0.386 0.367,-0.39 0.354,-0.39L0.269,-0.39C0.25,-0.39 0.236,-0.386 0.226,-0.377L0.198,-0.353C0.188,-0.345 0.183,-0.333 0.183,-0.32Z" style="fill:rgb(7,139,166);fill-rule:nonzero;"/>
                        </g>
                        <g transform="matrix(114.135,0,0,114.135,2489.8,1357.32)">
                            <path d="M0.101,-0.041L0.101,-0.43C0.101,-0.442 0.105,-0.451 0.113,-0.46C0.121,-0.468 0.131,-0.472 0.142,-0.472C0.153,-0.472 0.163,-0.468 0.171,-0.46C0.179,-0.452 0.183,-0.442 0.183,-0.43L0.183,-0.379L0.25,-0.436C0.278,-0.459 0.305,-0.471 0.331,-0.471L0.391,-0.471C0.425,-0.471 0.454,-0.459 0.478,-0.435C0.502,-0.411 0.514,-0.382 0.514,-0.348L0.514,-0.326C0.514,-0.314 0.51,-0.305 0.502,-0.296C0.494,-0.288 0.485,-0.284 0.473,-0.284C0.462,-0.284 0.452,-0.288 0.444,-0.296C0.436,-0.304 0.432,-0.314 0.432,-0.325L0.432,-0.348C0.432,-0.36 0.428,-0.369 0.42,-0.377C0.412,-0.385 0.403,-0.389 0.391,-0.389L0.338,-0.389C0.326,-0.389 0.314,-0.383 0.3,-0.371L0.183,-0.27L0.183,-0.041C0.183,-0.03 0.179,-0.02 0.171,-0.012C0.163,-0.004 0.153,-0 0.142,-0C0.131,-0 0.121,-0.004 0.113,-0.012C0.105,-0.02 0.101,-0.03 0.101,-0.041Z" style="fill:rgb(7,139,166);fill-rule:nonzero;"/>
                        </g>
                    </g>
                </g>
            </g>
            <g id="BookDotNet" transform="matrix(0.632835,0,0,0.622695,89.5459,-56.2021)">
                <g transform="matrix(0.425755,0,0,1.01925,48.1262,159.991)">
                    <path d="M2781.7,1145.01C2781.7,1140.75 2778.49,1137.29 2774.53,1137.29L2760.21,1137.29C2756.26,1137.29 2753.05,1140.75 2753.05,1145.01L2753.05,1439.14C2753.05,1443.4 2756.26,1446.86 2760.21,1446.86L2774.53,1446.86C2778.49,1446.86 2781.7,1443.4 2781.7,1439.14L2781.7,1145.01Z" style="fill:rgb(83,83,191);"/>
                </g>
                <g transform="matrix(0.394926,0,0,1.07929,133.121,91.4348)">
                    <path d="M2783.85,1144.02C2783.85,1139.97 2780.37,1136.68 2776.08,1136.68L2760.52,1136.68C2756.23,1136.68 2752.74,1139.97 2752.74,1144.02L2752.74,1359.43C2752.74,1363.48 2756.23,1366.77 2760.52,1366.77L2776.08,1366.77C2780.37,1366.77 2783.85,1363.48 2783.85,1359.43L2783.85,1144.02Z" style="fill:rgb(249,100,6);"/>
                </g>
                <g transform="matrix(5.58063e-18,-0.235216,0.0911385,1.44028e-17,1106.14,2139.14)">
                    <g transform="matrix(114.135,0,0,114.135,2145.11,1357.32)">
                        <path d="M0.265,-0.259L0.348,-0.259C0.359,-0.259 0.369,-0.255 0.377,-0.247C0.385,-0.239 0.389,-0.229 0.389,-0.218L0.389,-0.148C0.389,-0.137 0.385,-0.127 0.377,-0.118C0.369,-0.11 0.36,-0.106 0.348,-0.106L0.264,-0.106C0.253,-0.106 0.243,-0.11 0.235,-0.118C0.227,-0.126 0.223,-0.136 0.223,-0.147L0.223,-0.218C0.223,-0.229 0.227,-0.239 0.235,-0.247C0.243,-0.255 0.253,-0.259 0.265,-0.259Z" style="fill:rgb(7,139,166);fill-rule:nonzero;"/>
                    </g>
                    <g transform="matrix(114.135,0,0,114.135,2214.05,1357.32)">
                        <path d="M0.514,-0.607L0.514,-0L0.404,-0L0.183,-0.504L0.183,-0.041C0.183,-0.03 0.179,-0.02 0.171,-0.012C0.163,-0.004 0.153,-0 0.142,-0C0.131,-0 0.121,-0.004 0.113,-0.012C0.105,-0.02 0.101,-0.03 0.101,-0.041L0.101,-0.649L0.209,-0.649L0.431,-0.146L0.431,-0.607C0.431,-0.618 0.435,-0.628 0.444,-0.636C0.452,-0.645 0.462,-0.649 0.473,-0.649C0.485,-0.649 0.494,-0.645 0.502,-0.637C0.51,-0.629 0.514,-0.619 0.514,-0.607Z" style="fill:rgb(7,139,166);fill-rule:nonzero;"/>
                    </g>
                    <g transform="matrix(114.135,0,0,114.135,2282.99,1357.32)">
                        <path d="M0.473,-0.566L0.183,-0.566L0.183,-0.366L0.308,-0.366C0.319,-0.366 0.329,-0.362 0.337,-0.354C0.345,-0.346 0.349,-0.336 0.349,-0.325C0.349,-0.313 0.345,-0.304 0.337,-0.295C0.329,-0.287 0.319,-0.283 0.308,-0.283L0.183,-0.283L0.183,-0.082L0.474,-0.082C0.485,-0.082 0.495,-0.078 0.503,-0.07C0.511,-0.062 0.515,-0.052 0.515,-0.041C0.515,-0.03 0.511,-0.02 0.503,-0.012C0.494,-0.004 0.485,-0 0.473,-0L0.101,-0L0.101,-0.649L0.473,-0.649C0.485,-0.649 0.494,-0.645 0.503,-0.636C0.511,-0.628 0.515,-0.618 0.515,-0.607C0.515,-0.596 0.511,-0.586 0.503,-0.578C0.494,-0.57 0.485,-0.566 0.473,-0.566Z" style="fill:rgb(7,139,166);fill-rule:nonzero;"/>
                    </g>
                    <g transform="matrix(114.135,0,0,114.135,2351.92,1357.32)">
                        <path d="M0.1,-0.537L0.1,-0.648L0.514,-0.648L0.514,-0.536C0.514,-0.525 0.51,-0.515 0.502,-0.507C0.494,-0.499 0.484,-0.495 0.473,-0.495C0.462,-0.495 0.452,-0.499 0.444,-0.507C0.435,-0.515 0.431,-0.525 0.431,-0.536L0.431,-0.566L0.348,-0.566L0.348,-0.041C0.348,-0.03 0.344,-0.02 0.336,-0.012C0.328,-0.004 0.318,-0 0.307,-0C0.295,-0 0.285,-0.004 0.277,-0.012C0.269,-0.02 0.265,-0.03 0.265,-0.041L0.265,-0.566L0.182,-0.566L0.182,-0.537C0.182,-0.526 0.178,-0.516 0.17,-0.508C0.162,-0.5 0.153,-0.496 0.141,-0.496C0.13,-0.496 0.12,-0.5 0.112,-0.508C0.104,-0.516 0.1,-0.526 0.1,-0.537Z" style="fill:rgb(7,139,166);fill-rule:nonzero;"/>
                    </g>
                </g>
            </g>
            <g id="BookCSharp" transform="matrix(0.632835,0,0,0.622695,107.165,-29.27)">
                <g transform="matrix(0.394926,0,0,1.01925,106.278,113.552)">
                    <path d="M2746.19,1194.9C2746.19,1190.25 2742.42,1186.48 2737.77,1186.48L2664,1186.48C2659.35,1186.48 2655.58,1190.25 2655.58,1194.9L2655.58,1441.57C2655.58,1446.22 2659.35,1449.99 2664,1449.99L2737.77,1449.99C2742.42,1449.99 2746.19,1446.22 2746.19,1441.57L2746.19,1194.9Z" style="fill:rgb(17,134,149);"/>
                </g>
                <g transform="matrix(0.394926,0,0,1.01925,105.548,111.353)">
                    <path d="M2748.04,1191.75C2748.04,1190.04 2746.64,1188.64 2744.92,1188.64L2671.33,1188.64C2669.61,1188.64 2668.22,1190.04 2668.22,1191.75L2668.22,1433C2668.22,1434.72 2669.61,1436.12 2671.33,1436.12L2744.92,1436.12C2746.64,1436.12 2748.04,1434.72 2748.04,1433L2748.04,1191.75Z" style="fill:rgb(4,24,38);"/>
                </g>
                <g transform="matrix(1.64804e-17,-0.694627,0.269145,4.25336e-17,820.258,3055.33)">
                    <g transform="matrix(114.135,0,0,114.135,2145.11,1357.32)">
                        <path d="M0.326,-0.082L0.474,-0.082C0.485,-0.082 0.495,-0.078 0.504,-0.07C0.512,-0.062 0.516,-0.052 0.516,-0.041C0.516,-0.03 0.512,-0.02 0.504,-0.012C0.495,-0.004 0.486,-0 0.474,-0L0.321,-0C0.301,-0 0.281,-0.006 0.26,-0.019C0.239,-0.031 0.225,-0.045 0.217,-0.06L0.122,-0.243C0.109,-0.27 0.103,-0.297 0.103,-0.324C0.103,-0.355 0.109,-0.381 0.121,-0.404L0.217,-0.585C0.226,-0.602 0.24,-0.617 0.259,-0.63C0.278,-0.642 0.297,-0.649 0.315,-0.649L0.477,-0.649C0.488,-0.649 0.498,-0.645 0.506,-0.637C0.514,-0.629 0.518,-0.619 0.518,-0.608C0.518,-0.597 0.514,-0.587 0.506,-0.578C0.498,-0.57 0.488,-0.566 0.477,-0.566L0.321,-0.566C0.308,-0.566 0.297,-0.558 0.289,-0.543L0.198,-0.373C0.191,-0.36 0.187,-0.344 0.188,-0.326C0.187,-0.306 0.191,-0.29 0.199,-0.275L0.286,-0.108C0.294,-0.091 0.307,-0.082 0.326,-0.082Z" style="fill:rgb(7,139,166);fill-rule:nonzero;"/>
                    </g>
                    <g transform="matrix(114.135,0,0,114.135,2214.05,1357.32)">
                        <path d="M0.266,-0.249L0.266,-0.148C0.266,-0.137 0.262,-0.127 0.254,-0.118C0.246,-0.11 0.236,-0.106 0.225,-0.106C0.214,-0.106 0.204,-0.11 0.196,-0.118C0.188,-0.127 0.184,-0.137 0.184,-0.148L0.184,-0.249L0.142,-0.249C0.131,-0.249 0.121,-0.253 0.113,-0.261C0.105,-0.269 0.101,-0.279 0.101,-0.29C0.101,-0.301 0.105,-0.311 0.113,-0.319C0.121,-0.327 0.131,-0.331 0.142,-0.331L0.183,-0.331L0.183,-0.425L0.142,-0.425C0.131,-0.425 0.121,-0.429 0.113,-0.437C0.105,-0.445 0.101,-0.454 0.101,-0.466C0.101,-0.478 0.105,-0.487 0.113,-0.495C0.121,-0.503 0.131,-0.507 0.142,-0.507L0.184,-0.507L0.184,-0.608C0.184,-0.619 0.188,-0.629 0.196,-0.637C0.204,-0.645 0.214,-0.649 0.225,-0.649C0.236,-0.649 0.246,-0.645 0.254,-0.637C0.262,-0.629 0.266,-0.619 0.266,-0.608L0.266,-0.507L0.348,-0.507L0.348,-0.608C0.348,-0.619 0.352,-0.629 0.36,-0.637C0.368,-0.645 0.378,-0.649 0.389,-0.649C0.401,-0.649 0.41,-0.645 0.419,-0.637C0.427,-0.629 0.431,-0.619 0.431,-0.608L0.431,-0.507L0.473,-0.507C0.484,-0.507 0.494,-0.503 0.502,-0.495C0.51,-0.487 0.514,-0.477 0.514,-0.466C0.514,-0.454 0.51,-0.444 0.501,-0.436C0.492,-0.428 0.483,-0.424 0.473,-0.424L0.432,-0.424L0.432,-0.331L0.473,-0.331C0.484,-0.331 0.493,-0.327 0.502,-0.319C0.51,-0.311 0.514,-0.301 0.514,-0.29C0.514,-0.279 0.51,-0.27 0.503,-0.261C0.495,-0.253 0.485,-0.249 0.473,-0.249L0.431,-0.249L0.431,-0.148C0.431,-0.137 0.427,-0.127 0.419,-0.118C0.41,-0.11 0.401,-0.106 0.389,-0.106C0.378,-0.106 0.368,-0.11 0.36,-0.118C0.352,-0.127 0.348,-0.137 0.348,-0.148L0.348,-0.249L0.266,-0.249ZM0.266,-0.424L0.266,-0.331L0.348,-0.331L0.348,-0.424L0.266,-0.424Z" style="fill:rgb(7,139,166);fill-rule:nonzero;"/>
                    </g>
                </g>
            </g>
            <g id="BookDDD" transform="matrix(0.632835,0,0,0.622695,206.335,-7.20832)">
                <g transform="matrix(0.394926,0,0,1.01925,-50.611,82.0407)">
                    <path d="M2653.04,1217.65C2653.04,1209.27 2646.24,1202.48 2637.87,1202.48L2607.53,1202.48C2599.16,1202.48 2592.37,1209.27 2592.37,1217.65L2592.37,1430.97C2592.37,1439.35 2599.16,1446.14 2607.53,1446.14L2637.87,1446.14C2646.24,1446.14 2653.04,1439.35 2653.04,1430.97L2653.04,1217.65Z" style="fill:rgb(25,23,71);"/>
                </g>
                <g transform="matrix(2.41822e-17,-1.01925,0.394926,6.2411e-17,433.695,3793.9)">
                    <g transform="matrix(54.3467,0,0,54.3467,2208.57,1412.92)">
                        <path d="M0.141,-0.649L0.303,-0.649C0.324,-0.649 0.345,-0.642 0.365,-0.628C0.385,-0.615 0.4,-0.599 0.409,-0.58L0.49,-0.416C0.506,-0.386 0.513,-0.355 0.513,-0.323C0.513,-0.293 0.505,-0.263 0.489,-0.231L0.407,-0.069C0.397,-0.048 0.382,-0.031 0.362,-0.019C0.343,-0.006 0.321,-0 0.297,-0L0.14,-0C0.129,-0 0.119,-0.004 0.111,-0.012C0.103,-0.02 0.099,-0.03 0.099,-0.041C0.099,-0.052 0.103,-0.062 0.111,-0.071C0.119,-0.079 0.129,-0.083 0.14,-0.083L0.183,-0.083L0.183,-0.566L0.141,-0.566C0.13,-0.566 0.12,-0.57 0.112,-0.578C0.104,-0.587 0.1,-0.597 0.1,-0.608C0.1,-0.619 0.104,-0.629 0.112,-0.637C0.12,-0.645 0.13,-0.649 0.141,-0.649ZM0.265,-0.566L0.265,-0.082L0.294,-0.082C0.312,-0.082 0.326,-0.091 0.335,-0.109L0.416,-0.27C0.426,-0.291 0.431,-0.309 0.431,-0.323C0.431,-0.341 0.427,-0.358 0.419,-0.374L0.335,-0.541C0.326,-0.558 0.312,-0.566 0.292,-0.566L0.265,-0.566Z" style="fill:rgb(7,139,166);fill-rule:nonzero;"/>
                    </g>
                    <g transform="matrix(54.3467,0,0,54.3467,2241.39,1412.92)">
                        <path d="M0.141,-0.649L0.303,-0.649C0.324,-0.649 0.345,-0.642 0.365,-0.628C0.385,-0.615 0.4,-0.599 0.409,-0.58L0.49,-0.416C0.506,-0.386 0.513,-0.355 0.513,-0.323C0.513,-0.293 0.505,-0.263 0.489,-0.231L0.407,-0.069C0.397,-0.048 0.382,-0.031 0.362,-0.019C0.343,-0.006 0.321,-0 0.297,-0L0.14,-0C0.129,-0 0.119,-0.004 0.111,-0.012C0.103,-0.02 0.099,-0.03 0.099,-0.041C0.099,-0.052 0.103,-0.062 0.111,-0.071C0.119,-0.079 0.129,-0.083 0.14,-0.083L0.183,-0.083L0.183,-0.566L0.141,-0.566C0.13,-0.566 0.12,-0.57 0.112,-0.578C0.104,-0.587 0.1,-0.597 0.1,-0.608C0.1,-0.619 0.104,-0.629 0.112,-0.637C0.12,-0.645 0.13,-0.649 0.141,-0.649ZM0.265,-0.566L0.265,-0.082L0.294,-0.082C0.312,-0.082 0.326,-0.091 0.335,-0.109L0.416,-0.27C0.426,-0.291 0.431,-0.309 0.431,-0.323C0.431,-0.341 0.427,-0.358 0.419,-0.374L0.335,-0.541C0.326,-0.558 0.312,-0.566 0.292,-0.566L0.265,-0.566Z" style="fill:rgb(7,139,166);fill-rule:nonzero;"/>
                    </g>
                    <g transform="matrix(54.3467,0,0,54.3467,2274.22,1412.92)">
                        <path d="M0.141,-0.649L0.303,-0.649C0.324,-0.649 0.345,-0.642 0.365,-0.628C0.385,-0.615 0.4,-0.599 0.409,-0.58L0.49,-0.416C0.506,-0.386 0.513,-0.355 0.513,-0.323C0.513,-0.293 0.505,-0.263 0.489,-0.231L0.407,-0.069C0.397,-0.048 0.382,-0.031 0.362,-0.019C0.343,-0.006 0.321,-0 0.297,-0L0.14,-0C0.129,-0 0.119,-0.004 0.111,-0.012C0.103,-0.02 0.099,-0.03 0.099,-0.041C0.099,-0.052 0.103,-0.062 0.111,-0.071C0.119,-0.079 0.129,-0.083 0.14,-0.083L0.183,-0.083L0.183,-0.566L0.141,-0.566C0.13,-0.566 0.12,-0.57 0.112,-0.578C0.104,-0.587 0.1,-0.597 0.1,-0.608C0.1,-0.619 0.104,-0.629 0.112,-0.637C0.12,-0.645 0.13,-0.649 0.141,-0.649ZM0.265,-0.566L0.265,-0.082L0.294,-0.082C0.312,-0.082 0.326,-0.091 0.335,-0.109L0.416,-0.27C0.426,-0.291 0.431,-0.309 0.431,-0.323C0.431,-0.341 0.427,-0.358 0.419,-0.374L0.335,-0.541C0.326,-0.558 0.312,-0.566 0.292,-0.566L0.265,-0.566Z" style="fill:rgb(7,139,166);fill-rule:nonzero;"/>
                    </g>
                </g>
            </g>
            <g id="BookEmpty3" serif:id="BookEmpty" transform="matrix(0.231941,-0.214224,0.0998471,0.697177,61.4244,627.324)">
                <path d="M3045.43,1205.67C3045.43,1200.91 3040.85,1197.05 3035.22,1197.05L2984.88,1197.05C2979.24,1197.05 2974.67,1200.91 2974.67,1205.67L2974.67,1387.63C2974.67,1392.4 2979.24,1396.26 2984.88,1396.26L3035.22,1396.26C3040.85,1396.26 3045.43,1392.4 3045.43,1387.63L3045.43,1205.67Z" style="fill:rgb(25,23,71);"/>
            </g>
        </g>
    </g>
</svg>
