<?xml version="1.0" encoding="UTF-8" standalone="no"?>
<!DOCTYPE svg PUBLIC "-//W3C//DTD SVG 1.1//EN" "http://www.w3.org/Graphics/SVG/1.1/DTD/svg11.dtd">
<svg width="100%" height="100%" viewBox="0 0 500 500" version="1.1" xmlns="http://www.w3.org/2000/svg" xmlns:xlink="http://www.w3.org/1999/xlink" xml:space="preserve" xmlns:serif="http://www.serif.com/" style="fill-rule:evenodd;clip-rule:evenodd;stroke-linejoin:round;stroke-miterlimit:2;">
    <g transform="matrix(0.886917,0,0,0.886917,250,250)">
        <g id="buhler-group.svg" transform="matrix(1,0,0,1,-313.75,-128.7)">
            <g>
                <path d="M283.1,129.5L285.9,109.2L276.4,109.2L273.6,129.5L283.1,129.5Z" style="fill:rgb(0,155,145);fill-rule:nonzero;"/>
                <path d="M172.4,99.1L539.8,99L541.6,85.8L133.9,85.8C106.5,85.8 85.8,104.8 85.8,128.2C85.8,151.6 106.5,170.6 133.9,170.6L160.2,170.6L161.6,160.4C146.6,158.3 135.4,142.4 137.7,126.2C139.9,110.8 154,99.1 172.4,99.1Z" style="fill:rgb(0,155,145);fill-rule:nonzero;"/>
                <path d="M520.4,109.2L492.8,109.2L484.2,170.6L500.1,170.6L502.9,150.3L508.5,150.3L518.5,170.6L536.3,170.6L525,148.6C532.9,145.8 538.5,139.4 539.8,130.1C541.7,116.7 533.6,109.2 520.4,109.2ZM524.1,130.1C523.4,134.6 520.4,137.5 514.7,137.5L504.7,137.5L506.8,122.7L516.8,122.7C522.5,122.7 524.7,125.6 524.1,130.1Z" style="fill:rgb(0,155,145);fill-rule:nonzero;"/>
                <path d="M403.5,109.2L387.4,109.2L378.8,170.6L420,170.6L421.9,156.7L396.8,156.7L403.5,109.2Z" style="fill:rgb(0,155,145);fill-rule:nonzero;"/>
                <path d="M427.3,170.6L471.2,170.6L473.1,156.7L445,156.7L446.5,146.1L472.2,146.1L474.1,132.6L448.4,132.6L449.8,123L477.9,123L479.8,109.2L435.9,109.2L427.3,170.6Z" style="fill:rgb(0,155,145);fill-rule:nonzero;"/>
                <path d="M221.1,109.2L194.8,109.2L186.2,170.6L214.4,170.6C227.2,170.6 235.6,164.5 237.2,153.4C238.2,146.5 234.8,140.8 229.2,138.9C234,137.3 238.3,132.5 239.3,125.9C240.8,114.9 233.9,109.2 221.1,109.2ZM222,151.5C221.5,155 218.6,157.4 214.1,157.4L203.3,157.4L205,145.5L215.8,145.5C220.3,145.5 222.5,147.8 222,151.5ZM223.9,127.9C223.4,131.7 220.6,133.5 215.9,133.5L206.7,133.5L208.3,122.4L217.5,122.4C222.2,122.4 224.4,124.1 223.9,127.9Z" style="fill:rgb(0,155,145);fill-rule:nonzero;"/>
                <path d="M355,132.5L333.7,132.5L337,109.2L320.9,109.2L312.3,170.6L328.4,170.6L331.8,146.3L353.1,146.3L349.7,170.6L365.8,170.6L374.4,109.2L358.3,109.2L355,132.5Z" style="fill:rgb(0,155,145);fill-rule:nonzero;"/>
                <path d="M287,144.1C285.8,152.8 281.1,157.3 274.5,157.3C267.8,157.3 264.3,152.8 265.5,144.1L270.4,109.2L254.4,109.2L249.3,145.5C246.9,162.4 256.2,171.6 272.4,171.6C288.6,171.6 300.4,162.4 302.8,145.6L307.9,109.2L291.9,109.2L287,144.1Z" style="fill:rgb(0,155,145);fill-rule:nonzero;"/>
            </g>
        </g>
        <g id="buhler-group.svg1" serif:id="buhler-group.svg">
        </g>
    </g>
</svg>
