<?xml version="1.0" encoding="UTF-8" standalone="no"?>
<!DOCTYPE svg PUBLIC "-//W3C//DTD SVG 1.1//EN" "http://www.w3.org/Graphics/SVG/1.1/DTD/svg11.dtd">
<svg width="100%" height="100%" viewBox="0 0 500 500" version="1.1" xmlns="http://www.w3.org/2000/svg" xmlns:xlink="http://www.w3.org/1999/xlink" xml:space="preserve" xmlns:serif="http://www.serif.com/" style="fill-rule:evenodd;clip-rule:evenodd;stroke-linejoin:round;stroke-miterlimit:2;">
    <g transform="matrix(14.1119,0,0,14.1119,250,250)">
        <g id="eventstore.svg" transform="matrix(1,0,0,1,-12,-12)">
            <clipPath id="_clip1">
                <rect x="0" y="0" width="24" height="24"/>
            </clipPath>
            <g clip-path="url(#_clip1)">
                <path d="M15.67,23.409C17.059,22.974 18.344,22.257 19.443,21.302C20.531,20.36 21.43,19.22 22.092,17.942C22.347,17.45 22.567,16.948 22.754,16.435L19.497,17.136L17.558,14.786C17.429,15.129 17.269,15.459 17.08,15.772L17.08,15.765C16.313,17.071 15.235,18 13.855,18.6L13.804,18.621L13.175,21.396L15.587,23.435C15.614,23.425 15.643,23.418 15.67,23.409ZM10.566,6.426C10.881,6.426 11.21,6.426 11.556,6.455C13.013,6.593 14.401,7.139 15.562,8.03C15.676,8.104 15.784,8.194 15.889,8.285L19.505,7.85L20.819,4.364C20.251,3.656 19.599,3.019 18.878,2.468C17.733,1.583 16.428,0.928 15.034,0.538C14.372,0.352 13.699,0.212 13.018,0.118C12.533,0.057 12.046,0.019 11.558,0.005C10.736,-0.009 9.925,0.005 9.098,0.095L11.826,3.2L10.566,6.426ZM4.776,14.518L4.782,14.532L4.808,14.538L4.776,14.518ZM5.281,3.723C4.684,4.12 4.129,4.577 3.614,5.099C2.758,5.957 2.059,6.959 1.55,8.059L3.605,7.625L4.866,9.154C4.909,9.052 4.954,8.953 5.005,8.854C5.524,7.772 6.301,6.834 7.269,6.124L7.081,4.414L5.291,3.724L5.281,3.723ZM6.186,16.834C5.582,16.158 5.106,15.378 4.782,14.532L2.587,14.029L0.951,15.948C1.056,16.323 1.177,16.698 1.326,17.073C1.861,18.416 2.657,19.639 3.667,20.673C4.268,21.286 4.94,21.824 5.668,22.278L5.548,19.414L7.749,18.153C7.161,17.8 6.633,17.354 6.186,16.834Z" style="fill:rgb(87,176,80);fill-rule:nonzero;"/>
                <path d="M5.787,3.411L7.507,4.069L7.685,5.806L7.88,5.686C8.78,5.146 9.74,4.771 10.76,4.576L11.285,3.257L10.158,1.983C9.113,2.081 8.088,2.339 7.121,2.748C6.658,2.94 6.214,3.161 5.787,3.411ZM23.38,13.915C23.573,12.501 23.533,11.064 23.26,9.663C22.979,8.25 22.458,6.896 21.72,5.659C21.544,5.367 21.356,5.082 21.157,4.805L21.157,4.804L21.131,4.804L19.824,8.28L16.313,8.7C17.057,9.494 17.561,10.482 17.768,11.55C17.96,12.445 17.939,13.373 17.708,14.259L19.659,16.616L22.916,15.917C23.123,15.263 23.278,14.594 23.38,13.915ZM1.323,8.582L1.307,8.621C0.774,9.957 0.5,11.382 0.5,12.82C0.5,13.689 0.59,14.541 0.783,15.374L2.374,13.493L4.595,13.998C4.501,13.681 4.431,13.357 4.385,13.029C4.19,11.859 4.279,10.733 4.67,9.649L3.433,8.14L1.332,8.584L1.323,8.582ZM7.189,23.067C8.527,23.638 9.925,23.946 11.381,23.992C12.614,24.038 13.848,23.903 15.042,23.591L12.654,21.571L13.279,18.814C12.138,19.188 10.915,19.237 9.748,18.955C9.222,18.836 8.712,18.655 8.229,18.415L6.028,19.675L6.147,22.557C6.484,22.745 6.829,22.914 7.189,23.067Z" style="fill:rgb(87,176,80);fill-rule:nonzero;"/>
                <path d="M5.782,3.414L5.787,3.411L5.782,3.409L5.782,3.414Z" style="fill:rgb(87,176,80);fill-rule:nonzero;"/>
            </g>
        </g>
        <g id="eventstore.svg1" serif:id="eventstore.svg">
        </g>
    </g>
</svg>
