<?xml version="1.0" encoding="UTF-8" standalone="no"?>
<!DOCTYPE svg PUBLIC "-//W3C//DTD SVG 1.1//EN" "http://www.w3.org/Graphics/SVG/1.1/DTD/svg11.dtd">
<svg width="100%" height="100%" viewBox="0 0 500 500" version="1.1" xmlns="http://www.w3.org/2000/svg" xmlns:xlink="http://www.w3.org/1999/xlink" xml:space="preserve" xmlns:serif="http://www.serif.com/" style="fill-rule:evenodd;clip-rule:evenodd;stroke-linejoin:round;stroke-miterlimit:2;">
    <g transform="matrix(13.5595,0,0,13.5595,250,250)">
        <g id="linkedin.svg" transform="matrix(1,0,0,1,-12,-12)">
            <path d="M20.5,2L3.5,2C2.677,2 2,2.677 2,3.5L2,20.5C2,21.323 2.677,22 3.5,22L20.5,22C21.323,22 22,21.323 22,20.5L22,3.5C22,2.677 21.323,2 20.5,2ZM8,19L5,19L5,10L8,10L8,19ZM6.5,8.25C5.559,8.223 4.8,7.442 4.8,6.501C4.8,5.541 5.59,4.751 6.55,4.751C7.51,4.751 8.3,5.54 8.3,6.5C8.284,7.473 7.473,8.261 6.5,8.25ZM19,19L16,19L16,14.26C16,12.84 15.4,12.33 14.62,12.33C13.711,12.391 12.996,13.155 12.996,14.066C12.996,14.107 12.997,14.149 13,14.19C12.995,14.237 12.995,14.283 13,14.33L13,19L10,19L10,10L12.9,10L12.9,11.3C13.494,10.396 14.519,9.865 15.6,9.9C17.15,9.9 18.96,10.76 18.96,13.56L19,19Z" style="fill:rgb(10,102,194);fill-rule:nonzero;"/>
        </g>
        <g id="linkedin.svg1" serif:id="linkedin.svg">
        </g>
    </g>
</svg>
