<?xml version="1.0" encoding="UTF-8" standalone="no"?>
<!DOCTYPE svg PUBLIC "-//W3C//DTD SVG 1.1//EN" "http://www.w3.org/Graphics/SVG/1.1/DTD/svg11.dtd">
<svg width="100%" height="100%" viewBox="0 0 500 500" version="1.1" xmlns="http://www.w3.org/2000/svg" xmlns:xlink="http://www.w3.org/1999/xlink" xml:space="preserve" xmlns:serif="http://www.serif.com/" style="fill-rule:evenodd;clip-rule:evenodd;stroke-linejoin:round;stroke-miterlimit:2;">
    <g transform="matrix(0.56534,0,0,0.56534,250,250)">
        <g id="Reddit-Logo.wine.svg" transform="matrix(1,0,0,1,-600,-400)">
            <g transform="matrix(1,0,0,1,-49.6549,-35.5112)">
                <g transform="matrix(1.68846,0,0,1.68846,68.6246,-311.37)">
                    <circle cx="347.081" cy="435.511" r="158.964" style="fill:rgb(255,69,0);"/>
                </g>
                <g transform="matrix(1.68846,0,0,1.68846,68.3052,-308.809)">
                    <path d="M453.119,435.511C453.119,422.612 442.689,412.369 429.977,412.369C423.718,412.369 418.025,414.833 413.853,418.818C397.92,407.436 376.104,400.039 351.822,399.091L362.444,349.39L396.969,356.788C397.351,365.514 404.557,372.533 413.475,372.533C422.58,372.533 429.977,365.136 429.977,356.027C429.977,346.922 422.58,339.525 413.475,339.525C407.025,339.525 401.332,343.319 398.677,348.821L360.171,340.664C359.032,340.473 357.894,340.664 357.133,341.233C356.186,341.802 355.617,342.75 355.429,343.888L343.665,399.279C319.006,400.039 296.811,407.436 280.687,419.009C276.346,414.863 270.566,412.551 264.563,412.56C251.664,412.56 241.42,422.991 241.42,435.702C241.42,445.186 247.11,453.152 255.08,456.759C254.698,459.032 254.51,461.309 254.51,463.777C254.51,499.437 296.054,528.463 347.272,528.463C398.49,528.463 440.033,499.628 440.033,463.777C440.033,461.5 439.842,459.032 439.464,456.759C447.43,453.152 453.119,444.995 453.119,435.511ZM294.155,452.013C294.155,442.908 301.552,435.511 310.661,435.511C319.766,435.511 327.163,442.908 327.163,452.013C327.163,461.118 319.766,468.519 310.661,468.519C301.552,468.706 294.155,461.118 294.155,452.013ZM386.538,495.834C375.156,507.216 353.53,507.976 347.272,507.976C340.822,507.976 319.197,507.025 308.002,495.834C306.297,494.126 306.297,491.471 308.002,489.763C309.71,488.059 312.365,488.059 314.073,489.763C321.283,496.973 336.459,499.437 347.272,499.437C358.085,499.437 373.448,496.973 380.467,489.763C382.175,488.059 384.83,488.059 386.538,489.763C388.055,491.471 388.055,494.126 386.538,495.834ZM383.501,468.706C374.396,468.706 366.999,461.309 366.999,452.204C366.999,443.099 374.396,435.702 383.501,435.702C392.609,435.702 400.006,443.099 400.006,452.204C400.006,461.118 392.609,468.706 383.501,468.706Z" style="fill:white;fill-rule:nonzero;"/>
                </g>
            </g>
        </g>
        <g id="Reddit-Logo.wine.svg1" serif:id="Reddit-Logo.wine.svg">
        </g>
    </g>
</svg>
