<?xml version="1.0" encoding="UTF-8" standalone="no"?>
<!DOCTYPE svg PUBLIC "-//W3C//DTD SVG 1.1//EN" "http://www.w3.org/Graphics/SVG/1.1/DTD/svg11.dtd">
<svg width="100%" height="100%" viewBox="0 0 500 500" version="1.1" xmlns="http://www.w3.org/2000/svg" xmlns:xlink="http://www.w3.org/1999/xlink" xml:space="preserve" xmlns:serif="http://www.serif.com/" style="fill-rule:evenodd;clip-rule:evenodd;stroke-linejoin:round;stroke-miterlimit:2;">
    <g transform="matrix(1.22333,0,0,1.22333,250,250)">
        <g id="schule-waldstatt.svg" transform="matrix(1,0,0,1,-135,-32)">
            <g>
                <g transform="matrix(1,0,0,1,0.42,0)">
                    <path d="M2.65,18.322C2.818,19.911 3.154,20.831 3.911,21.71C4.836,22.756 6.266,23.425 7.78,23.425C10.43,23.425 12.701,21.166 12.701,18.489C12.701,17.15 12.07,15.895 11.019,15.017C10.136,14.264 9.252,13.888 7.234,13.386C4.668,12.758 3.617,12.256 2.607,11.252C1.472,10.165 0.841,8.617 0.841,6.944C0.841,3.095 3.785,0.293 7.822,0.293C11.607,0.293 14.593,3.179 14.593,6.944L12.028,6.944C11.818,4.308 10.009,2.51 7.57,2.51C5.173,2.51 3.322,4.434 3.322,6.86C3.322,7.906 3.785,9.035 4.5,9.621C5.173,10.165 6.266,10.667 8.159,11.21C11.061,12.005 11.607,12.256 12.743,13.135C14.215,14.431 15.14,16.397 15.14,18.405C15.14,22.421 11.776,25.642 7.654,25.642C3.322,25.642 0.21,22.714 0,18.322L2.65,18.322ZM36.757,19.869C35.621,22.086 34.738,23.09 33.014,24.178C31.374,25.224 29.818,25.642 27.883,25.642C22.29,25.642 17.916,21.501 17.916,16.188C17.958,10.876 22.332,6.693 27.799,6.693C31.836,6.693 35.327,8.993 36.757,12.591L34.023,12.591C32.636,10.207 30.28,8.784 27.757,8.784C23.551,8.784 20.271,12.005 20.271,16.146C20.271,20.288 23.509,23.55 27.631,23.55C30.28,23.55 32.131,22.505 34.023,19.869L36.757,19.869ZM40.29,0.753L42.603,0.753L42.603,9.495C43.78,7.822 45.925,6.693 48.154,6.693C50.72,6.693 53.117,7.78 54.589,9.621C55.64,11.001 56.229,13.009 56.229,15.268L56.229,25.224L53.916,25.224L53.916,15.268C53.916,13.344 53.453,11.838 52.486,10.708C51.435,9.495 49.794,8.784 48.154,8.784C46.346,8.784 44.495,9.746 43.528,11.21C42.855,12.131 42.603,13.26 42.603,15.268L42.603,25.224L40.29,25.224L40.29,0.753ZM77.005,25.182L74.776,25.182L74.776,22.379C73.598,24.554 71.579,25.6 68.636,25.6C65.986,25.6 63.757,24.512 62.411,22.546C61.486,21.208 61.065,19.451 61.065,17.025L61.065,7.111L63.379,7.111L63.379,17.108C63.379,19.033 63.715,20.288 64.472,21.333C65.523,22.797 67.121,23.55 69.014,23.55C70.822,23.55 72.463,22.714 73.556,21.25C74.271,20.246 74.65,18.782 74.65,17.108L74.65,7.111L76.963,7.111L76.963,25.182L77.005,25.182Z" style="fill-rule:nonzero;"/>
                    <path d="M81.967,0.753L84.28,0.753L84.28,25.224L81.967,25.224L81.967,0.753Z" style="fill-rule:nonzero;"/>
                    <path d="M90.589,17.025C90.757,20.622 93.995,23.55 97.696,23.55C100.304,23.55 103.037,21.71 104.005,19.284L106.57,19.284C105.266,23.007 101.607,25.642 97.738,25.642C92.439,25.642 88.192,21.459 88.192,16.188C88.192,10.918 92.397,6.693 97.654,6.693C101.103,6.693 104.341,8.617 105.981,11.712C106.738,13.135 107.033,14.515 107.117,17.025L90.589,17.025ZM104.678,14.933C104.215,13.135 103.626,11.963 102.575,10.876C101.271,9.579 99.421,8.784 97.738,8.784C94.248,8.784 91.304,11.336 90.715,14.933L104.678,14.933Z" style="fill-rule:nonzero;"/>
                    <path d="M118.514,0.753L121.079,0.753L127.093,22.044L132.981,0.753L135.252,0.753L141.14,22.044L147.196,0.753L149.72,0.753L142.696,25.224L139.542,25.224L134.075,5.145L128.692,25.224L125.537,25.224L118.514,0.753Z" style="fill-rule:nonzero;"/>
                    <path d="M169.822,25.182L167.509,25.182L167.509,22.044C165.743,24.429 163.346,25.642 160.444,25.642C155.019,25.642 150.603,21.417 150.603,16.272C150.603,10.834 154.85,6.693 160.36,6.693C163.346,6.693 165.827,7.948 167.509,10.332L167.509,7.111L169.822,7.111L169.822,25.182ZM152.874,16.021C152.874,20.204 156.196,23.55 160.36,23.55C164.187,23.55 167.467,20.162 167.467,16.272C167.467,12.047 164.313,8.742 160.234,8.742C156.322,8.784 152.874,12.131 152.874,16.021Z" style="fill-rule:nonzero;"/>
                    <path d="M174.785,0.753L177.098,0.753L177.098,25.224L174.785,25.224L174.785,0.753Z" style="fill-rule:nonzero;"/>
                    <path d="M200.187,25.182L197.958,25.182L197.958,21.919C196.949,23.258 196.276,23.885 195.182,24.512C194.005,25.182 192.322,25.6 190.85,25.6C185.299,25.6 181.009,21.417 181.009,16.063C181.009,10.834 185.341,6.651 190.808,6.651C193.584,6.651 196.065,7.78 197.832,9.956L197.832,0.753L200.145,0.753L200.145,25.182L200.187,25.182ZM183.364,16.063C183.364,20.12 186.687,23.55 190.724,23.55C194.762,23.55 198,20.204 198,16.063C198,12.047 194.72,8.784 190.64,8.784C186.687,8.784 183.364,12.089 183.364,16.063ZM206.159,19.869C206.243,21.041 206.411,21.668 207,22.337C207.631,23.09 208.598,23.55 209.523,23.55C211.29,23.55 212.804,22.086 212.804,20.371C212.804,18.698 211.836,17.736 209.187,16.858C207.379,16.272 206.537,15.812 205.738,15.142C204.813,14.306 204.35,13.176 204.35,11.838C204.35,8.993 206.621,6.693 209.439,6.693C212.341,6.693 214.528,8.742 214.696,11.629L212.173,11.629C212.047,9.914 210.953,8.784 209.397,8.784C208.051,8.784 206.664,10.123 206.664,11.461C206.664,12.214 207.126,13.093 207.757,13.553C208.22,13.888 208.598,14.055 209.902,14.515C213.687,15.77 215.117,17.234 215.117,19.827C215.117,23.258 212.762,25.642 209.439,25.642C206.033,25.642 203.72,23.299 203.678,19.869L206.159,19.869Z" style="fill-rule:nonzero;"/>
                    <path d="M220.332,9.203L216.547,9.203L216.547,7.111L220.332,7.111L220.332,0.753L222.645,0.753L222.645,7.111L227.019,7.111L227.019,9.203L222.645,9.203L222.645,25.182L220.332,25.182L220.332,9.203Z" style="fill-rule:nonzero;"/>
                    <path d="M247.079,25.182L244.766,25.182L244.766,22.044C243,24.429 240.603,25.642 237.701,25.642C232.276,25.642 227.86,21.417 227.86,16.272C227.86,10.834 232.107,6.693 237.617,6.693C240.603,6.693 243.084,7.948 244.766,10.332L244.766,7.111L247.079,7.111L247.079,25.182ZM230.173,16.021C230.173,20.204 233.495,23.55 237.659,23.55C241.486,23.55 244.766,20.162 244.766,16.272C244.766,12.047 241.612,8.742 237.533,8.742C233.579,8.784 230.173,12.131 230.173,16.021Z" style="fill-rule:nonzero;"/>
                    <path d="M252.799,9.203L249.014,9.203L249.014,7.111L252.799,7.111L252.799,0.753L255.112,0.753L255.112,7.111L259.486,7.111L259.486,9.203L255.112,9.203L255.112,25.182L252.799,25.182L252.799,9.203Z" style="fill-rule:nonzero;"/>
                    <path d="M262.682,9.203L258.897,9.203L258.897,7.111L262.682,7.111L262.682,0.753L264.995,0.753L264.995,7.111L269.369,7.111L269.369,9.203L264.995,9.203L264.995,25.182L262.682,25.182L262.682,9.203Z" style="fill-rule:nonzero;"/>
                </g>
                <path d="M0.21,35.556C0.21,35.556 15.771,36.769 20.65,43.001C20.65,43.001 38.65,46.85 41.089,48.23C41.089,48.23 56.65,48.021 75.238,43.378C75.238,43.378 87.729,44.8 94.037,44.173C100.388,43.587 102.028,44.382 102.827,45.386C103.626,46.39 108.967,44.591 109.766,43.378C110.565,42.165 112.206,42.165 113.467,41.746C114.687,41.328 117.967,40.324 118.598,40.324C119.229,40.324 124.107,41.328 124.318,42.123C124.528,42.918 127.808,43.922 127.808,43.922L128.818,44.925C128.818,44.925 130.668,41.286 130.668,40.492C130.668,39.697 137.019,40.91 140.299,39.697C143.579,38.484 146.229,39.111 147.238,38.902C148.248,38.693 156.238,39.111 158.089,37.48C159.939,35.848 161.79,36.476 162.589,35.848C163.388,35.263 163.808,35.848 165.238,36.058C166.668,36.267 170.748,36.476 171.589,37.48C172.388,38.484 177.519,40.115 180.168,38.275C182.818,36.476 193.879,36.852 196.528,35.472C199.178,34.05 203.089,34.886 203.089,34.886L209.439,35.472C209.439,35.472 211.079,35.054 214.36,35.054C217.64,35.054 223.36,34.05 225.589,32.837C227.818,31.624 230.299,32.627 230.72,33.422C231.14,34.217 235.009,37.856 235.85,38.442C236.65,39.027 242.411,43.294 247.079,40.868C251.79,38.442 252.589,41.286 253.43,41.872C254.229,42.458 260.579,46.892 264.659,43.503C268.738,40.073 269.579,42.081 269.579,42.081L269.579,63.624L0,63.624L0.21,35.556Z" style="fill-rule:nonzero;"/>
                <g transform="matrix(1,0,0,1,3.785,51.87)">
                    <path d="M0.252,0.251L1.009,0.251L1.009,3.221C1.514,2.468 2.271,2.092 3.238,2.092C4.879,2.092 6.266,3.43 6.266,5.02C6.266,6.693 4.921,8.031 3.238,8.031C2.271,8.031 1.472,7.613 0.967,6.902L0.967,7.864L0.252,7.864L0.252,0.251ZM0.967,5.061C0.967,6.4 1.977,7.404 3.28,7.404C4.542,7.404 5.551,6.358 5.551,5.103C5.551,3.807 4.542,2.803 3.28,2.803C1.935,2.761 0.967,3.765 0.967,5.061ZM7.864,5.354C7.907,6.484 8.916,7.404 10.093,7.404C10.893,7.404 11.776,6.818 12.07,6.065L12.869,6.065C12.449,7.237 11.313,8.031 10.093,8.031C8.411,8.031 7.107,6.735 7.107,5.061C7.107,3.388 8.411,2.092 10.093,2.092C11.187,2.092 12.196,2.719 12.701,3.681C12.953,4.141 13.037,4.559 13.079,5.354L7.864,5.354ZM12.238,4.685C12.112,4.141 11.902,3.765 11.565,3.43C11.145,3.012 10.598,2.761 10.051,2.761C8.958,2.761 8.033,3.556 7.864,4.685L12.238,4.685Z" style="fill-rule:nonzero;"/>
                    <path d="M13.374,2.259L14.131,2.259L15.939,6.986L17.243,2.928L17.874,2.928L19.178,6.986L20.986,2.259L21.743,2.259L19.556,7.906L18.757,7.906L17.537,4.141L16.318,7.906L15.477,7.906L13.374,2.259Z" style="fill-rule:nonzero;"/>
                    <path d="M22.879,5.354C22.921,6.484 23.93,7.404 25.107,7.404C25.907,7.404 26.79,6.818 27.084,6.065L27.883,6.065C27.463,7.237 26.327,8.031 25.107,8.031C23.425,8.031 22.121,6.735 22.121,5.061C22.121,3.388 23.425,2.092 25.107,2.092C26.201,2.092 27.21,2.719 27.715,3.681C27.967,4.141 28.051,4.559 28.093,5.354L22.879,5.354ZM27.252,4.685C27.126,4.141 26.916,3.765 26.579,3.43C26.159,3.012 25.612,2.761 25.065,2.761C23.972,2.761 23.047,3.556 22.879,4.685L27.252,4.685ZM34.822,7.237C34.822,8.157 34.696,8.533 34.276,9.077C33.729,9.746 32.846,10.165 31.879,10.165C31.037,10.165 30.196,9.788 29.65,9.161C29.397,8.868 29.229,8.533 29.061,8.073L29.86,8.073C30.07,8.45 30.238,8.701 30.491,8.952C30.869,9.286 31.416,9.495 32.005,9.495C33.224,9.495 34.107,8.617 34.107,7.446L34.107,6.818C33.771,7.571 32.888,8.073 31.879,8.073C31.164,8.073 30.364,7.739 29.818,7.237C29.229,6.693 28.935,5.982 28.935,5.145C28.935,3.514 30.238,2.175 31.836,2.175C32.804,2.175 33.603,2.593 34.107,3.346L34.107,2.342L34.822,2.342L34.822,7.237ZM29.607,5.02C29.607,6.358 30.575,7.404 31.836,7.404C32.509,7.404 33.056,7.153 33.477,6.609C33.813,6.191 34.023,5.605 34.023,5.103C34.023,3.807 33.014,2.803 31.752,2.803C30.617,2.761 29.607,3.765 29.607,5.02Z" style="fill-rule:nonzero;"/>
                    <path d="M36.589,2.928L35.411,2.928L35.411,2.259L36.589,2.259L36.589,0.251L37.304,0.251L37.304,2.259L38.692,2.259L38.692,2.928L37.304,2.928L37.304,7.948L36.589,7.948L36.589,2.928Z" style="fill-rule:nonzero;"/>
                    <path d="M42.687,6.233C42.729,6.609 42.771,6.776 42.939,6.986C43.15,7.237 43.444,7.362 43.738,7.362C44.285,7.362 44.748,6.902 44.748,6.358C44.748,5.814 44.453,5.522 43.612,5.271C43.065,5.103 42.771,4.936 42.519,4.727C42.224,4.476 42.098,4.099 42.098,3.681C42.098,2.803 42.813,2.092 43.696,2.092C44.621,2.092 45.294,2.719 45.336,3.639L44.579,3.639C44.537,3.095 44.201,2.761 43.696,2.761C43.276,2.761 42.855,3.179 42.855,3.597C42.855,3.848 42.981,4.099 43.192,4.267C43.318,4.35 43.444,4.434 43.864,4.559C45.042,4.936 45.505,5.396 45.505,6.233C45.505,7.32 44.748,8.073 43.738,8.073C42.687,8.073 41.93,7.32 41.93,6.275L42.687,6.275L42.687,6.233ZM46.766,0.251L47.481,0.251L47.481,1.548L46.766,1.548L46.766,0.251ZM46.766,2.259L47.481,2.259L47.481,7.906L46.766,7.906L46.766,2.259ZM54.631,6.233C54.252,6.944 54,7.237 53.453,7.571C52.949,7.906 52.444,8.031 51.855,8.031C50.089,8.031 48.743,6.735 48.743,5.061C48.743,3.388 50.131,2.092 51.813,2.092C53.075,2.092 54.168,2.803 54.631,3.932L53.79,3.932C53.369,3.179 52.612,2.719 51.813,2.719C50.509,2.719 49.458,3.723 49.458,5.02C49.458,6.316 50.467,7.32 51.771,7.32C52.612,7.32 53.159,6.986 53.748,6.191L54.631,6.191L54.631,6.233ZM55.682,0.251L56.439,0.251L56.439,2.97C56.818,2.426 57.491,2.092 58.164,2.092C58.963,2.092 59.72,2.426 60.182,3.012C60.519,3.43 60.687,4.058 60.687,4.769L60.687,7.864L59.972,7.864L59.972,4.769C59.972,4.141 59.804,3.681 59.509,3.346C59.173,2.97 58.668,2.719 58.164,2.719C57.617,2.719 57.028,3.012 56.692,3.472C56.481,3.765 56.397,4.099 56.397,4.727L56.397,7.822L55.682,7.822L55.682,0.251Z" style="fill-rule:nonzero;"/>
                </g>
            </g>
        </g>
        <g id="schule-waldstatt.svg1" serif:id="schule-waldstatt.svg">
        </g>
    </g>
</svg>
