<?xml version="1.0" encoding="UTF-8" standalone="no"?>
<!DOCTYPE svg PUBLIC "-//W3C//DTD SVG 1.1//EN" "http://www.w3.org/Graphics/SVG/1.1/DTD/svg11.dtd">
<svg width="100%" height="100%" viewBox="0 0 500 500" version="1.1" xmlns="http://www.w3.org/2000/svg" xmlns:xlink="http://www.w3.org/1999/xlink" xml:space="preserve" xmlns:serif="http://www.serif.com/" style="fill-rule:evenodd;clip-rule:evenodd;stroke-linejoin:round;stroke-miterlimit:2;">
    <g transform="matrix(0.558736,0,0,0.558736,250,250)">
        <g id="ZHAW_Logo.svg" transform="matrix(1,0,0,1,-329.5,-384)">
            <g id="path12192" transform="matrix(1,0,0,1,44.7997,-87.5123)">
                <path d="M157.281,283.684C154.108,283.684 151.01,284.114 148.064,284.969C136.754,288.659 129.164,299.109 129.146,310.988C129.146,322.891 136.731,333.352 148.017,337.042C150.999,337.914 154.102,338.344 157.281,338.344L232.614,338.344C229.737,341.477 128.274,451.803 128.274,451.803C122.422,458.091 119.464,466.274 119.464,476.125L119.522,477.427C120.109,489.376 129.332,502.586 148.192,503.412L150.04,503.453L300.211,503.453C303.437,503.453 306.581,503.006 309.574,502.123C320.814,498.391 328.352,487.948 328.352,476.126C328.352,464.276 320.803,453.826 309.563,450.124L309.504,450.115C306.529,449.231 303.396,448.796 300.188,448.796L213.104,448.796C215.957,445.668 315.496,336.539 315.496,336.539C322.11,329.455 325.911,321.179 325.911,313.844L325.813,310.996C325.499,306.027 324.348,301.569 322.384,297.745C319.28,291.684 314.183,287.354 307.645,285.227C304.495,284.204 301.043,283.687 297.358,283.687L157.281,283.687M165.958,663.983C165.958,685.783 146.175,706.775 113.879,706.775C93.694,706.775 81.181,695.872 81.181,682.546C81.181,664.785 94.496,657.113 119.127,653.492L140.52,650.255C147.384,649.041 159.496,647.018 165.958,640.962L165.958,663.983ZM232.213,711.715C230.458,705.665 228.25,698.133 228.25,683.354L228.25,584.448C228.25,543.231 193.082,520.536 129.216,520.536C69.296,520.536 32.362,548.938 32.362,576.184C32.362,591.3 44.613,603.557 59.736,603.557C66.297,603.557 72.318,601.244 77.032,597.397C80.037,595.165 82.803,592.503 85.616,589.76C94.711,580.903 105.027,570.866 128.809,570.866C145.146,570.866 162.599,576.346 162.599,591.724C162.599,605.156 155.026,608.48 140.142,610.171L104.225,614.216C62.014,619.104 18.885,631.408 18.885,685.37C18.885,725.129 54.459,748.888 88.853,748.888C121.161,748.888 146.175,739.112 167.051,718.527C170.323,738.13 183.272,748.888 204.305,748.888C221.13,748.888 234.317,737.479 234.317,722.915C234.317,718.904 233.341,715.574 232.213,711.715M342.074,227.451L342.069,469.665C342.074,488.303 357.232,503.455 375.865,503.455C394.248,503.455 409.399,488.507 409.649,470.13L409.649,372.381C409.649,346.373 430.665,330.28 450.129,330.28C478.688,330.28 482.948,353.12 482.948,366.732L482.948,470.228C483.244,488.541 498.384,503.449 516.703,503.455C535.353,503.455 550.516,488.292 550.516,469.665L550.516,355.021C550.516,303.778 521.137,273.19 471.917,273.19C447.008,273.19 425.568,281.85 409.632,298.123L409.632,226.853C409.301,208.551 394.149,193.661 375.853,193.661C357.221,193.661 342.064,208.819 342.064,227.451M487.65,541.888C487.65,541.897 486.563,545.84 486.563,545.84L485.191,551.757C485.191,551.757 463.048,650.209 459.549,665.738C458.672,661.664 437.412,563.456 437.412,563.456C436.477,559.265 435.192,553.826 433.576,548.769L432.118,544.567C425.94,529.678 411.556,520.065 395.445,520.065C380.038,520.065 365.904,529.102 359.423,543.103C358.308,546.02 357.296,549.269 356.343,553.093C355.442,556.644 354.675,560.271 354.001,563.473C354.001,563.473 335.217,651.633 332.125,666.145C331.178,662.181 304.583,551.664 304.583,551.664L303.438,546.962C302.706,544.068 302.032,541.772 301.317,539.726C296.226,527.812 284.591,520.1 271.671,520.059C262.314,520.096 253.358,524.174 247.098,531.247C242.525,536.53 239.834,542.992 239.316,549.943C239.316,549.957 239.258,551.356 239.258,551.356C239.258,553.268 239.34,555.145 239.531,557.069C240.176,563.781 241.85,569.122 243.466,574.283L286.648,714.766L287.583,717.742L289.78,724.187C296.417,739.403 311.406,749.277 327.981,749.358L328.295,749.363C345.545,749.317 360.795,738.913 367.136,722.861C367.136,722.829 369.129,715.806 369.129,715.806C369.129,715.764 369.472,714.469 369.472,714.469C369.472,714.469 394.009,616.697 394.887,613.175C395.782,616.761 420.633,715.777 420.633,715.777L422.464,722.315C428.59,738.454 444.276,749.311 461.502,749.363L461.851,749.358C478.071,749.271 492.926,739.682 499.703,724.926C500.586,722.578 501.458,720.032 502.376,717.103L503.115,714.749L546.308,574.283C547.924,569.093 549.597,563.735 550.237,557.069C550.417,555.145 550.51,553.268 550.51,551.356L550.452,549.943C549.935,542.975 547.232,536.512 542.664,531.229C536.382,524.162 527.437,520.094 518.103,520.059C504.341,520.101 492.096,528.881 487.615,541.888" style="fill:rgb(18,102,172);fill-rule:nonzero;"/>
            </g>
        </g>
        <g id="ZHAW_Logo.svg1" serif:id="ZHAW_Logo.svg">
        </g>
    </g>
</svg>
