<?xml version="1.0" encoding="UTF-8" standalone="no"?>
<!DOCTYPE svg PUBLIC "-//W3C//DTD SVG 1.1//EN" "http://www.w3.org/Graphics/SVG/1.1/DTD/svg11.dtd">
<svg width="100%" height="100%" viewBox="0 0 800 300" version="1.1" xmlns="http://www.w3.org/2000/svg" xmlns:xlink="http://www.w3.org/1999/xlink" xml:space="preserve" xmlns:serif="http://www.serif.com/" style="fill-rule:evenodd;clip-rule:evenodd;stroke-linejoin:round;stroke-miterlimit:2;">
    <g transform="matrix(7.76977,0,0,7.76977,400,150)">
        <g id="header.svg" transform="matrix(1,0,0,1,-40.05,-8)">
            <clipPath id="_clip1">
                <rect x="0" y="0" width="80.1" height="16"/>
            </clipPath>
            <g clip-path="url(#_clip1)">
                <path d="M12.7,5.2L13.5,2.9C13.146,2.394 12.706,1.954 12.2,1.6C11.476,1.004 10.618,0.592 9.7,0.4C9.259,0.205 8.782,0.102 8.3,0.1L5.7,0.1L7.5,2.1L6.7,4.3L7.4,4.3C8.345,4.375 9.248,4.722 10,5.3L10.3,5.5L12.7,5.2Z" style="fill:rgb(90,181,82);fill-rule:nonzero;"/>
                <path d="M4.4,1.8L3.5,2.3L4.7,2.7L4.7,3.9L4.8,3.9C5.378,3.537 6.025,3.299 6.7,3.2L7.1,2.3L6.3,1.4L4.4,1.8Z" style="fill:rgb(90,181,82);fill-rule:nonzero;"/>
                <path d="M4.4,2.9L3.2,2.5C2.769,2.711 2.392,3.019 2.1,3.4C1.492,3.956 1.014,4.639 0.7,5.4L2.1,5.1L2.9,6.1L2.9,5.9C3.317,5.206 3.859,4.595 4.5,4.1L4.4,2.9Z" style="fill:rgb(90,181,82);fill-rule:nonzero;"/>
                <path d="M11,10.5L11.4,9.9L12.7,11.4L14.8,11L14.4,12C13.912,12.819 13.306,13.56 12.6,14.2C11.862,14.819 11.014,15.294 10.1,15.6L10,15.6L8.4,14.3L8.9,12.4C9.794,12.022 10.535,11.352 11,10.5Z" style="fill:rgb(90,181,82);fill-rule:nonzero;"/>
                <path d="M14.1,3.8L13.8,3.2L12.9,5.5L10.5,5.8C11.024,6.313 11.374,6.978 11.5,7.7C11.601,8.296 11.601,8.904 11.5,9.5L12.8,11.1L14.9,10.6C15.093,10.194 15.196,9.75 15.2,9.3C15.4,8.344 15.4,7.356 15.2,6.4C14.981,5.478 14.609,4.599 14.1,3.8Z" style="fill:rgb(90,181,82);fill-rule:nonzero;"/>
                <path d="M0.5,5.7L1.9,5.4L2.8,6.4C2.534,7.136 2.466,7.929 2.6,8.7C2.6,8.9 2.7,9.1 2.7,9.3L1.3,9L0.2,10.2C0.078,9.641 0.011,9.072 0,8.5C0.021,7.546 0.189,6.602 0.5,5.7Z" style="fill:rgb(90,181,82);fill-rule:nonzero;"/>
                <path d="M3.8,11.2C3.41,10.74 3.074,10.237 2.8,9.7L1.4,9.3L0.3,10.6L0.5,11.4C0.879,12.292 1.422,13.106 2.1,13.8L3.4,14.9L3.4,12.9L4.8,12.1C4.398,11.886 4.055,11.577 3.8,11.2Z" style="fill:rgb(90,181,82);fill-rule:nonzero;"/>
                <path d="M5.1,12.3C5.452,12.446 5.822,12.547 6.2,12.6C6.957,12.819 7.765,12.784 8.5,12.5L8.1,14.4L9.7,15.7C8.882,15.904 8.043,16.005 7.2,16C6.267,16.002 5.344,15.798 4.5,15.4L3.8,15L3.8,13.1L5.1,12.3Z" style="fill:rgb(90,181,82);fill-rule:nonzero;"/>
                <path d="M54.9,6.8C54.907,8.532 54.345,10.219 53.3,11.6C52.838,12.032 52.233,12.281 51.6,12.3C49.9,12.3 49.6,10.6 49.6,9.7C49.596,7.983 50.198,6.318 51.3,5C51.751,4.55 52.363,4.298 53,4.3C54.7,4.3 54.9,5.9 54.9,6.8ZM52.3,5.8C51.5,6.5 51.1,8.7 51.1,9.9C51.1,11.1 51.2,11 51.8,11L52.3,10.8C53,10 53.4,7.5 53.4,6.7C53.4,5.9 53.3,5.6 52.8,5.6L52.3,5.8Z"/>
                <path d="M41.9,10.7C42.23,10.905 42.612,11.009 43,11C43.033,11.003 43.067,11.005 43.1,11.005C43.649,11.005 44.1,10.554 44.1,10.005C44.1,10.003 44.1,10.002 44.1,10C44.1,9.5 43.8,9.2 43.3,8.7C42.746,8.222 42.419,7.531 42.4,6.8C42.399,6.766 42.398,6.732 42.398,6.698C42.398,5.381 43.481,4.298 44.798,4.298C44.832,4.298 44.866,4.299 44.9,4.3C45.319,4.298 45.731,4.401 46.1,4.6L45.7,5.8L44.9,5.6C44.867,5.597 44.833,5.595 44.8,5.595C44.251,5.595 43.8,6.046 43.8,6.595C43.8,6.597 43.8,6.598 43.8,6.6C43.8,7 44,7.3 44.6,7.8C45.135,8.292 45.458,8.974 45.5,9.7C45.506,9.767 45.509,9.835 45.509,9.902C45.509,11.219 44.425,12.302 43.109,12.302C43.072,12.302 43.036,12.302 43,12.3C42.484,12.315 41.971,12.213 41.5,12L41.9,10.7Z" style="fill-rule:nonzero;"/>
                <path d="M21.5,8.8L19.8,8.8L19.4,10.9L21.4,10.9L21.1,12.2L17.7,12.2L19.2,4.4L22.5,4.4L22.2,5.7L20.4,5.7L20,7.5L21.8,7.5L21.5,8.8Z" style="fill-rule:nonzero;"/>
                <path d="M22.8,12.2L22.6,4.4L24.2,4.4L24.2,8.3C24.2,9.1 24.1,10 24.1,10.6C24.3,10 24.5,9 24.8,8.3L26.2,4.4L27.8,4.4L24.5,12.2L22.8,12.2Z" style="fill-rule:nonzero;"/>
                <path d="M28.6,8.8L30.3,8.8L30.6,7.5L28.8,7.5L29.2,5.7L31,5.7L31.2,4.4L28,4.4L26.5,12.2L29.9,12.2L30.1,10.9L28.2,10.9L28.6,8.8Z" style="fill-rule:nonzero;"/>
                <path d="M30.6,12.2L32.1,4.4L33.5,4.4L34.1,7.5C34.275,8.289 34.375,9.092 34.4,9.9L34.5,9.9L34.5,9.4C34.6,8.6 34.8,7.5 35,6.4L35.3,4.4L36.6,4.4L35.1,12.2L33.9,12.2L33.2,9.3C33,8.2 32.9,7.7 32.8,6.7C32.7,7.5 32.5,8.8 32.3,10.1L31.9,12.2L30.6,12.2Z" style="fill-rule:nonzero;"/>
                <path d="M36.6,5.8L38,5.8L36.7,12.2L38.2,12.2L39.4,5.8L40.8,5.8L41,4.4L36.9,4.4L36.6,5.8Z" style="fill-rule:nonzero;"/>
                <path d="M46.2,5.8L47.5,5.8L46.3,12.2L47.7,12.2L49,5.8L50.3,5.8L50.6,4.4L46.4,4.4L46.2,5.8Z" style="fill-rule:nonzero;"/>
                <path d="M57.7,4.4L56.1,4.4L54.7,12.1L56.1,12.1L56.7,9L56.9,9C57.4,9 57.6,9.3 57.6,10.2C57.559,10.835 57.593,11.473 57.7,12.1L59.1,12.1C59.002,11.438 58.969,10.768 59,10.1C59,9.2 58.8,8.8 58.3,8.6C59.269,8.257 59.916,7.328 59.9,6.3C59.904,5.819 59.725,5.354 59.4,5C58.939,4.577 58.324,4.36 57.7,4.4ZM57.2,8L56.9,8L57.3,5.5L57.7,5.5C58.3,5.5 58.4,5.9 58.4,6.4C58.4,6.9 58,8 57.2,8Z"/>
                <path d="M63.5,8.8L61.7,8.8L61.3,10.9L63.3,10.9L63,12.2L59.6,12.2L61.1,4.4L64.4,4.4L64.1,5.7L62.3,5.7L61.9,7.5L63.7,7.5L63.5,8.8Z" style="fill-rule:nonzero;"/>
                <path d="M64.7,11.3L64.7,11.9L64.9,11.9L64.9,11.7L65,11.7C65.1,11.7 65.1,11.7 65.1,11.8L65.3,11.8C65.3,11.745 65.255,11.7 65.2,11.7L65.3,11.7C65.3,11.6 65.3,11.5 65.2,11.5L64.7,11.5L64.7,11.3ZM65,11.4L64.9,11.4L64.9,11.2L65,11.4Z"/>
                <path d="M65,12.2C65.2,12.2 65.3,12.2 65.4,12C65.526,11.906 65.6,11.757 65.6,11.6C65.6,11.443 65.526,11.294 65.4,11.2L65,11L64.6,11.2C64.474,11.294 64.4,11.443 64.4,11.6C64.4,11.757 64.474,11.906 64.6,12L65,12.2ZM64.5,11.6L64.5,11.3L64.9,11.1L65.3,11.3L65.3,11.6C65.273,11.75 65.203,11.888 65.1,12L64.5,12C64.466,11.869 64.466,11.731 64.5,11.6Z"/>
                <path d="M73.2,8.7L69.7,12.2C69.7,12.3 69.6,12.3 69.4,12.3L69.1,12.3L68.7,11.9C68.567,11.723 68.567,11.477 68.7,11.3L71.5,8.5L68.7,5.6C68.6,5.6 68.6,5.5 68.6,5.3C68.591,5.191 68.627,5.082 68.7,5L69.1,4.6L69.7,4.6L73.2,8.1L73.4,8.4L73.2,8.7ZM80.1,12L79.9,12.3L73.9,12.3C73.827,12.218 73.791,12.109 73.8,12L73.8,11.4C73.791,11.291 73.827,11.182 73.9,11.1L79.9,11.1L80.1,11.4L80.1,12Z" style="fill:rgb(90,181,82);fill-rule:nonzero;"/>
            </g>
        </g>
        <g id="header.svg1" serif:id="header.svg">
        </g>
    </g>
</svg>
