<?xml version="1.0" encoding="UTF-8" standalone="no"?>
<!DOCTYPE svg PUBLIC "-//W3C//DTD SVG 1.1//EN" "http://www.w3.org/Graphics/SVG/1.1/DTD/svg11.dtd">
<svg width="100%" height="100%" viewBox="0 0 2484 2484" version="1.1" xmlns="http://www.w3.org/2000/svg" xmlns:xlink="http://www.w3.org/1999/xlink" xml:space="preserve" xmlns:serif="http://www.serif.com/" style="fill-rule:evenodd;clip-rule:evenodd;stroke-linejoin:round;stroke-miterlimit:2;">
    <g transform="matrix(4.16667,0,0,4.16667,0,0)">
        <g transform="matrix(0.24,0,0,0.24,0,0)">
            <path d="M1258.63,9.883C1930.69,18.94 2473.57,567.407 2473.57,1241.67C2473.57,1921.57 1921.57,2473.57 1241.67,2473.57C561.763,2473.57 9.768,1921.57 9.768,1241.67C9.768,567.407 552.638,18.94 1224.7,9.883L1258.63,9.883Z" style="fill:rgb(117,78,41);fill-rule:nonzero;"/>
        </g>
        <g transform="matrix(1.17791,0,0,1.17791,-51.1716,-144.605)">
            <path d="M243.604,556.555C204.508,556.555 176.574,550.913 176.574,543.95C176.574,536.989 204.508,531.346 243.604,531.346C282.702,531.346 318.16,536.989 318.16,543.95C318.16,550.913 282.702,556.555 243.604,556.555Z" style="fill:rgb(93,64,38);fill-rule:nonzero;"/>
        </g>
        <g transform="matrix(1.17791,0,0,1.17791,-51.1716,-144.605)">
            <path d="M382.33,540.584C343.232,540.584 316.552,534.942 316.552,527.98C316.552,521.019 343.232,515.376 382.33,515.376C421.428,515.376 453.125,521.019 453.125,527.98C453.125,534.942 421.428,540.584 382.33,540.584Z" style="fill:rgb(93,64,38);fill-rule:nonzero;"/>
        </g>
        <g transform="matrix(1.17791,0,0,1.17791,-51.1716,-144.605)">
            <path d="M465.54,322.834C465.54,322.834 470.836,328.56 479.474,310.371C488.109,292.183 482.247,333.039 472.798,341.665C463.351,350.294 462.824,341.162 462.824,341.162L465.54,322.834Z" style="fill:rgb(211,93,89);fill-rule:nonzero;"/>
        </g>
        <g transform="matrix(1.17791,0,0,1.17791,-51.1716,-144.605)">
            <path d="M424.654,304.55C424.654,304.55 453.415,293.653 467.038,319.992C480.661,346.33 468.958,359.941 459.824,364.49C450.69,369.037 424.654,304.55 424.654,304.55Z" style="fill:rgb(235,120,106);fill-rule:nonzero;"/>
        </g>
        <g transform="matrix(1.17791,0,0,1.17791,-51.1716,-144.605)">
            <path d="M187.629,484.723L197.285,538.574C197.285,538.574 213.921,550.35 240.261,543.084C266.6,535.815 251.894,509.565 251.894,509.565L187.629,484.723Z" style="fill:rgb(235,120,106);fill-rule:nonzero;"/>
        </g>
        <g transform="matrix(1.17791,0,0,1.17791,-51.1716,-144.605)">
            <path d="M334.719,498.38L341.075,530.365C341.075,530.365 358.334,537.633 377.406,530.365C396.479,523.101 381.946,484.723 381.946,484.723L334.719,498.38Z" style="fill:rgb(211,93,89);fill-rule:nonzero;"/>
        </g>
        <g transform="matrix(1.17791,0,0,1.17791,-51.1716,-144.605)">
            <path d="M226.183,248.785C226.183,248.785 194.396,208.395 184.403,211.119C174.415,213.846 188.946,281.234 184.403,292.043C179.863,302.852 226.183,248.785 226.183,248.785Z" style="fill:rgb(235,120,106);fill-rule:nonzero;"/>
        </g>
        <g transform="matrix(1.17791,0,0,1.17791,-51.1716,-144.605)">
            <path d="M215.583,259.572C215.583,259.572 191.217,225.653 189.4,224.744C187.583,223.835 192.207,260.039 191.217,272.263C190.226,284.489 215.583,259.572 215.583,259.572Z" style="fill:rgb(211,93,89);fill-rule:nonzero;"/>
        </g>
        <g transform="matrix(1.17791,0,0,1.17791,-51.1716,-144.605)">
            <path d="M368.302,494.037L378.313,532.183C378.313,532.183 405.562,545.323 430.991,525.02C433.717,501.993 436.004,445.9 436.004,445.9L368.302,490.432" style="fill:rgb(235,120,106);fill-rule:nonzero;"/>
        </g>
        <g transform="matrix(1.17791,0,0,1.17791,-51.1716,-144.605)">
            <path d="M467.775,371.378C474.588,466.231 388.356,512.869 292.068,512.869C195.782,512.869 135.436,461.173 135.436,382.278C135.436,303.381 209.38,231.248 298.88,231.248C393.755,231.248 462.125,292.686 467.775,371.378Z" style="fill:rgb(245,138,119);fill-rule:nonzero;"/>
        </g>
        <g transform="matrix(1.17791,0,0,1.17791,-51.1716,-144.605)">
            <path d="M231.634,288.32C230.271,281.51 264.754,222.17 274.774,227.014C284.794,231.859 290.215,313.196 283.854,325.961C277.499,338.729 232.998,295.133 231.634,288.32Z" style="fill:rgb(235,120,106);fill-rule:nonzero;"/>
        </g>
        <g transform="matrix(1.17791,0,0,1.17791,-51.1716,-144.605)">
            <path d="M243.62,285.141C243.62,285.141 264.329,243.767 269.78,243.338C275.229,242.909 276.138,319.535 267.055,312.102C257.971,304.669 243.108,290.59 243.62,285.141Z" style="fill:rgb(211,93,89);fill-rule:nonzero;"/>
        </g>
        <g transform="matrix(1.17791,0,0,1.17791,-51.1716,-144.605)">
            <path d="M290.453,244.697C290.453,244.697 341.449,237.197 388.36,264.96C392.396,269.501 392.445,274.951 392.445,274.951C392.445,274.951 351.679,252.231 294.539,256.715C294.044,251.544 290.453,244.697 290.453,244.697Z" style="fill:rgb(211,93,89);fill-rule:nonzero;"/>
        </g>
        <g transform="matrix(1.17791,0,0,1.17791,-51.1716,-144.605)">
            <path d="M307.471,510.354L298.39,545.45C298.39,545.45 283.675,552.385 246.345,547.985C240.261,537.633 232.998,489.495 232.998,489.495L307.471,510.354Z" style="fill:rgb(245,138,119);fill-rule:nonzero;"/>
        </g>
        <g transform="matrix(1.17791,0,0,1.17791,-51.1716,-144.605)">
            <path d="M166.773,345.182C158.522,341.292 122.052,349.136 122.052,349.136L130.169,463.495C130.169,463.495 161.827,468.083 174.945,460.314C188.067,452.55 195.759,432.555 193.469,400.29C191.18,368.026 175.021,349.073 166.773,345.182Z" style="fill:rgb(235,120,106);fill-rule:nonzero;"/>
        </g>
        <g transform="matrix(1.17791,0,0,1.17791,-51.1716,-144.605)">
            <path d="M152.183,404.463C154.425,436.045 144.57,462.471 130.169,463.495C115.77,464.516 102.282,439.745 100.04,408.166C97.798,376.585 107.656,350.158 122.052,349.136C136.455,348.114 149.941,372.887 152.183,404.463Z" style="fill:rgb(245,138,119);fill-rule:nonzero;"/>
        </g>
        <g transform="matrix(1.17791,0,0,1.17791,-51.1716,-144.605)">
            <path d="M121.205,422.315C121.394,424.978 119.389,427.292 116.73,427.48L115.03,427.6C112.37,427.789 110.059,425.783 109.87,423.12L107.496,389.686C107.308,387.024 109.312,384.713 111.974,384.525L113.67,384.404C116.331,384.216 118.643,386.22 118.833,388.882L121.205,422.315Z" style="fill:rgb(211,93,89);fill-rule:nonzero;"/>
        </g>
        <g transform="matrix(1.17791,0,0,1.17791,-51.1716,-144.605)">
            <path d="M140.146,422.983C140.333,425.646 138.33,427.957 135.669,428.146L133.973,428.268C131.309,428.456 128.998,426.451 128.81,423.787L126.439,390.355C126.25,387.694 128.254,385.383 130.914,385.193L132.614,385.073C135.271,384.885 137.586,386.889 137.774,389.55L140.146,422.983Z" style="fill:rgb(211,93,89);fill-rule:nonzero;"/>
        </g>
        <g transform="matrix(1.17791,0,0,1.17791,-51.1716,-144.605)">
            <path d="M186.585,324.368C183.432,334.419 188.575,344.982 198.075,347.966C207.579,350.948 217.841,345.222 220.994,335.17C224.151,325.119 219.005,314.558 209.503,311.572C200,308.588 189.741,314.319 186.585,324.368Z" style="fill:white;fill-rule:nonzero;"/>
        </g>
        <g transform="matrix(1.17791,0,0,1.17791,-51.1716,-144.605)">
            <path d="M188.464,324.954C185.997,332.814 190.02,341.072 197.447,343.405C204.877,345.737 212.896,341.26 215.365,333.402C217.831,325.544 213.809,317.285 206.378,314.951C198.952,312.619 190.932,317.1 188.464,324.954Z" style="fill:rgb(34,31,31);fill-rule:nonzero;"/>
        </g>
        <g transform="matrix(1.17791,0,0,1.17791,-51.1716,-144.605)">
            <path d="M173.834,322.271C170.365,329.02 163.916,332.62 159.432,330.313C154.949,328.005 154.126,320.665 157.595,313.922C161.065,307.175 167.517,303.575 171.998,305.882C176.482,308.186 177.306,315.527 173.834,322.271Z" style="fill:white;fill-rule:nonzero;"/>
        </g>
        <g transform="matrix(1.17791,0,0,1.17791,-51.1716,-144.605)">
            <path d="M170.575,320.631C167.861,325.904 162.819,328.717 159.313,326.915C155.809,325.113 155.167,319.374 157.88,314.099C160.593,308.826 165.635,306.015 169.143,307.814C172.642,309.619 173.289,315.354 170.575,320.631Z" style="fill:rgb(34,31,31);fill-rule:nonzero;"/>
        </g>
        <g transform="matrix(1.17791,0,0,1.17791,-51.1716,-144.605)">
            <path d="M212.854,323.622C212.854,325.439 211.381,326.913 209.565,326.913C207.749,326.913 206.276,325.439 206.276,323.622C206.276,321.807 207.749,320.334 209.565,320.334C211.381,320.334 212.854,321.807 212.854,323.622Z" style="fill:white;fill-rule:nonzero;"/>
        </g>
        <g transform="matrix(1.17791,0,0,1.17791,-51.1716,-144.605)">
            <path d="M169.303,313.984C168.946,314.82 167.981,315.21 167.146,314.853C166.31,314.499 165.92,313.532 166.277,312.697C166.629,311.861 167.596,311.473 168.431,311.828C169.268,312.183 169.658,313.149 169.303,313.984Z" style="fill:white;fill-rule:nonzero;"/>
        </g>
    </g>
</svg>
